<svg id="Layer_2" data-name="Layer 2" xmlns="http://www.w3.org/2000/svg" viewBox="0 0 365.17 98.5"><defs><style>.cls-1{fill:#28ab84}.cls-2{fill:#5d2467}</style></defs><g id="Layer_1-2" data-name="Layer 1"><path class="cls-2" d="M151.01 7.5c1.39-.93 3.13-1.39 5.21-1.39 2.28 0 4.15.55 5.59 1.65 1.45 1.1 2.47 2.65 3.08 4.65l6.25-1.74c-1.05-3.2-2.86-5.73-5.42-7.6-2.56-1.87-5.73-2.81-9.51-2.81-3.29 0-6.12.72-8.5 2.15s-4.21 3.43-5.5 6-1.93 5.56-1.93 8.97.64 6.4 1.93 8.97c1.29 2.57 3.12 4.57 5.5 6 2.38 1.43 5.22 2.15 8.5 2.15 3.77 0 6.94-.94 9.51-2.81 2.56-1.87 4.37-4.41 5.42-7.6l-6.25-1.73c-.61 1.98-1.64 3.52-3.08 4.63-1.44 1.11-3.31 1.67-5.59 1.67-2.09 0-3.82-.46-5.21-1.39-1.39-.93-2.44-2.24-3.14-3.93-.7-1.69-1.05-3.68-1.05-5.96s.35-4.27 1.05-5.96c.7-1.69 1.75-3 3.14-3.93M193.86 10.31c-1.81-1.22-4.01-1.83-6.6-1.83-2.43 0-4.59.55-6.46 1.65-1.87 1.1-3.34 2.65-4.4 4.65-1.07 1.99-1.6 4.34-1.6 7.03 0 2.47.54 4.65 1.63 6.56 1.09 1.91 2.59 3.41 4.52 4.5 1.92 1.09 4.15 1.63 6.68 1.63 2.37 0 4.56-.62 6.56-1.87s3.47-3 4.39-5.25l-6.21-1.78c-.46 1-1.12 1.77-1.99 2.3-.87.53-1.91.8-3.13.8-1.93 0-3.4-.63-4.39-1.88-.73-.92-1.19-2.12-1.38-3.59h17.3c.26-2.98-.04-5.58-.91-7.78-.87-2.21-2.21-3.92-4.02-5.14m-6.32 3.56c1.81 0 3.11.55 3.91 1.66.53.73.87 1.76 1.05 3.09h-10.85c.24-1.14.65-2.08 1.22-2.82 1-1.29 2.55-1.93 4.67-1.93M203.93 33.82h6.21V20.49h11.14v-6.21h-11.14V7.16h13.87V.95h-20.08v32.87zM245.13 10.31c-1.81-1.22-4.01-1.83-6.6-1.83-2.44 0-4.59.55-6.46 1.65-1.87 1.1-3.34 2.65-4.41 4.65-1.07 1.99-1.6 4.34-1.6 7.03 0 2.47.54 4.65 1.63 6.56 1.09 1.91 2.59 3.41 4.52 4.5 1.93 1.09 4.15 1.63 6.68 1.63 2.37 0 4.56-.62 6.56-1.87s3.47-3 4.39-5.25l-6.21-1.78c-.46 1-1.12 1.77-1.99 2.3-.87.53-1.91.8-3.13.8-1.93 0-3.4-.63-4.39-1.88-.73-.92-1.19-2.12-1.38-3.59h17.3c.26-2.98-.05-5.58-.91-7.78-.87-2.21-2.21-3.92-4.02-5.14m-6.32 3.56c1.81 0 3.11.55 3.91 1.66.53.73.87 1.76 1.05 3.09H232.9c.24-1.14.65-2.08 1.22-2.82 1-1.29 2.55-1.93 4.67-1.93M271.89 20.77c-1.13-.65-2.64-1.21-4.51-1.7-1.92-.49-3.34-.88-4.28-1.19-.94-.3-1.55-.6-1.85-.89s-.44-.65-.44-1.07c0-.72.35-1.26 1.04-1.64.69-.38 1.61-.53 2.75-.46 1.17.09 2.1.4 2.78.94.68.53 1.08 1.26 1.19 2.17l6.34-1.14c-.21-1.49-.78-2.79-1.7-3.88-.92-1.1-2.13-1.94-3.62-2.53-1.49-.59-3.2-.89-5.14-.89s-3.72.32-5.19.95c-1.47.63-2.61 1.53-3.41 2.69-.81 1.16-1.21 2.54-1.21 4.12 0 1.26.27 2.34.8 3.23.53.89 1.4 1.65 2.6 2.29 1.2.64 2.81 1.22 4.82 1.73 1.78.47 3.09.85 3.94 1.14.84.29 1.39.58 1.63.88.24.3.36.69.36 1.18 0 .78-.3 1.38-.91 1.81-.61.43-1.48.65-2.6.65-1.37 0-2.5-.33-3.39-.98-.89-.65-1.46-1.56-1.72-2.72l-6.35.96c.41 2.57 1.57 4.56 3.48 5.97 1.91 1.41 4.42 2.11 7.52 2.11s5.75-.72 7.58-2.17 2.74-3.43 2.74-5.96c0-1.28-.26-2.37-.78-3.27-.52-.91-1.34-1.68-2.48-2.33M294.95 13.96V9.17h-7.12V2.32h-6.21v6.85h-4.2v4.79h4.2v9.4c0 1.48.01 2.8.05 3.96.03 1.16.35 2.31.96 3.44.67 1.2 1.65 2.07 2.93 2.61 1.29.54 2.75.83 4.38.87 1.64.04 3.31-.1 5.01-.42v-5.16c-1.46.2-2.79.26-3.99.18-1.2-.08-2.08-.55-2.62-1.42-.29-.46-.45-1.07-.47-1.84-.02-.77-.03-1.63-.03-2.59v-9.03h7.12Z"/><path class="cls-1" d="M223.53 60.6a8.6 8.6 0 0 0 2.87-2.67c1.14-1.67 1.72-3.63 1.72-5.88 0-1.91-.46-3.69-1.39-5.34-.93-1.65-2.26-2.98-4.01-3.99-1.74-1.01-3.85-1.52-6.31-1.52h-16.05v41.2h17.48c2.52 0 4.7-.49 6.54-1.46 1.84-.97 3.25-2.34 4.23-4.09.98-1.75 1.47-3.83 1.47-6.24 0-2.61-.73-4.86-2.2-6.75-1.11-1.43-2.57-2.52-4.36-3.27m-18.01-14.58h10.84c1.93 0 3.49.56 4.71 1.69 1.21 1.13 1.82 2.58 1.82 4.35 0 1.3-.29 2.42-.87 3.36-.58.94-1.37 1.68-2.36 2.2-.99.52-2.09.79-3.29.79h-10.84V46.01ZM223.8 74.3c-.7 1.03-1.65 1.83-2.85 2.39-1.2.56-2.56.84-4.09.84H205.5V63.2h11.93c1.45 0 2.73.33 3.85.99 1.11.66 1.99 1.54 2.62 2.65.63 1.11.94 2.36.94 3.75s-.35 2.69-1.04 3.72M236.36 51.51h5.09v30.9h-5.09zM236.36 40.78h5.09v5.26h-5.09zM250.6 40.35h5.09V82.4h-5.09zM264.85 40.78h5.09v5.26h-5.09zM264.85 51.51h5.09v30.9h-5.09zM298.19 66.74c-1.57-.81-3.72-1.56-6.45-2.25-2.42-.61-4.27-1.15-5.54-1.63-1.27-.48-2.14-.98-2.6-1.5-.47-.52-.7-1.17-.7-1.93 0-1.32.62-2.36 1.87-3.15 1.25-.78 2.88-1.14 4.88-1.09 2.1.06 3.82.57 5.18 1.53 1.35.96 2.16 2.26 2.4 3.9l5.21-.94c-.21-1.81-.88-3.4-2.02-4.76-1.13-1.36-2.63-2.42-4.48-3.16-1.85-.74-3.95-1.11-6.29-1.11s-4.44.38-6.22 1.13c-1.78.75-3.17 1.81-4.16 3.16-.99 1.35-1.49 2.94-1.49 4.75 0 1.49.33 2.75 1 3.78.67 1.03 1.78 1.93 3.35 2.7 1.56.77 3.71 1.52 6.44 2.25 2.52.69 4.4 1.27 5.65 1.75s2.07.99 2.47 1.53c.4.54.6 1.24.6 2.1 0 1.51-.61 2.7-1.82 3.58-1.21.88-2.86 1.31-4.96 1.31-2.23 0-4.1-.49-5.61-1.47-1.51-.98-2.47-2.31-2.89-3.99l-5.21.83c.53 2.9 1.98 5.15 4.33 6.77 2.05 1.4 4.61 2.2 7.67 2.38l-1.56 4.39c.97.29 1.84.61 2.62.99.77.37 1.16.98 1.16 1.82 0 .5-.19.95-.56 1.37-.37.42-.9.63-1.59.63-.53 0-1.23-.15-2.09-.46l-1.23 3.29c.55.27 1.14.49 1.76.67.62.18 1.28.27 1.99.27 1.53 0 2.84-.53 3.95-1.6 1.11-1.07 1.66-2.41 1.66-4.03 0-1.24-.32-2.27-.95-3.1-.63-.83-1.47-1.48-2.52-1.96l.83-2.33c2.87-.26 5.2-1.07 6.98-2.46 2.19-1.71 3.29-4.05 3.29-7.02 0-1.6-.33-2.95-1-4.05s-1.79-2.05-3.36-2.86M309.44 51.51h5.09v30.9h-5.09zM309.44 40.78h5.09v5.26h-5.09zM362.4 53.66c-1.85-1.96-4.39-2.95-7.61-2.95-2.06 0-3.91.46-5.55 1.37-1.6.89-2.87 2.14-3.81 3.73-.84-1.63-2.03-2.89-3.58-3.78-1.55-.89-3.36-1.33-5.44-1.33s-3.94.46-5.58 1.37a10.36 10.36 0 0 0-3.2 2.74V51.5h-4.55v30.9h5.12V62.78c0-2.25.62-4.07 1.86-5.45 1.24-1.38 2.86-2.07 4.86-2.07s3.64.68 4.86 2.03c1.22 1.35 1.83 3.2 1.83 5.55l-.03 19.57h5.06l.03-19.62c0-1.73.32-3.16.97-4.26.65-1.11 1.49-1.93 2.52-2.46s2.12-.8 3.26-.8c1.96 0 3.56.65 4.79 1.96s1.85 3.11 1.85 5.42l-.03 19.77h5.09l.03-20.88c0-3.28-.92-5.9-2.77-7.87"/><path class="cls-2" d="M84.73 74.63c.73-.88 2.11.01 1.6 1.03-.02.03-.03.06-.05.09-.31.57-.64 1.14-.96 1.71-.31.58-.68 1.12-1.04 1.68-.37.55-.71 1.12-1.11 1.64l-1.19 1.58s0 .01-.01.02c-.85 1.01-1.7 2.04-2.65 2.98-.9.99-1.92 1.85-2.91 2.76 0 0-.01 0-.02.01l-1.57 1.26-.4.31c-.13.1-.27.2-.41.29l-.83.58-.83.58c-.14.1-.28.19-.42.28l-.43.27c-.58.36-1.15.72-1.74 1.06l-1.8.96-.45.24c-.15.08-.31.14-.46.22l-.93.43-.94.42c-.16.07-.31.13-.47.19l-.48.18c-.64.24-1.28.49-1.93.72-2.6.88-5.29 1.52-8.03 1.92l-1.03.13-.52.07-.52.04-1.04.08-.52.04-.26.02h-.26l-2.08.07h-.02l-2.08-.05c-2.78-.13-5.56-.51-8.29-1.13-2.73-.62-5.41-1.48-8.01-2.56-.64-.29-1.29-.56-1.93-.86l-1.89-.94-1.85-1.03c-.61-.36-1.2-.74-1.8-1.11A49.036 49.036 0 0 1 9.72 79.25c-.42-.58-.85-1.16-1.26-1.74l-1.18-1.8c-.38-.61-.73-1.24-1.09-1.86-.19-.31-.35-.63-.51-.95l-.5-.96A49.001 49.001 0 0 1 2 63.89l-.29-1.04c-.09-.35-.21-.7-.28-1.05l-.48-2.12c-.13-.71-.25-1.43-.38-2.15-.07-.36-.11-.72-.15-1.08l-.13-1.08c-.32-2.89-.37-5.82-.16-8.74.4-5.84 1.88-11.61 4.31-16.96 2.43-5.35 5.78-10.31 9.93-14.56 4.16-4.24 9.09-7.76 14.52-10.33 2.71-1.29 5.56-2.3 8.46-3.08 2.9-.77 5.88-1.3 8.9-1.55l2.26-.14 2.27-.03c.38-.01.76.02 1.14.03l1.14.05.57.02.57.05 1.13.1c3.01.3 6.01.87 8.92 1.7 2.92.83 5.76 1.91 8.49 3.24 2.73 1.33 5.34 2.9 7.81 4.68 2.72 1.97 5.34 4.12 7.6 6.61 2.31 2.54 4.44 5.28 4.16 8.9-.39 4.87-4.65 8.51-9.52 8.13-1.7-.13-3.3-.77-4.66-1.78-1.52-1.12-2.65-2.65-3.84-4.09-2.52-3.04-5.77-5.42-9.23-7.27-1.81-.97-3.7-1.77-5.65-2.41-3.9-1.27-8.03-1.91-12.15-1.75-2.06.08-4.12.33-6.16.77-2.03.44-4.04 1.03-5.96 1.84a35.9 35.9 0 0 0-10.59 6.72c-3.13 2.86-5.77 6.3-7.76 10.1-.99 1.9-1.83 3.89-2.5 5.94-.67 2.05-1.13 4.17-1.41 6.31-.28 2.14-.37 4.32-.28 6.49l.04.82c.02.27.02.54.06.81l.18 1.63.26 1.62c.03.27.11.54.16.81l.17.8c.98 4.27 2.7 8.4 5.14 12.12 2.43 3.72 5.55 7.04 9.16 9.76 3.61 2.73 7.74 4.81 12.11 6.14 4.38 1.34 9.01 1.91 13.64 1.64l.43-.02c.15 0 .29 0 .43-.03l.87-.08.87-.08c.29-.03.58-.08.86-.12 1.16-.14 2.3-.4 3.45-.61.57-.14 1.14-.29 1.71-.43l.43-.11c.14-.03.29-.07.42-.12l.84-.27.85-.26c.14-.04.28-.09.42-.13l.42-.16 1.67-.62c.55-.23 1.08-.48 1.63-.72l.41-.18c.14-.06.28-.12.41-.19l.8-.41c1.08-.51 2.1-1.14 3.15-1.73 0 0 .01 0 .02-.01l1.51-.98c.52-.32 1-.69 1.49-1.04 1-.69 1.92-1.5 2.88-2.26a53.05 53.05 0 0 0 5.21-5.28c.02-.02.03-.04.05-.06"/><path class="cls-1" d="M60.05 41.22c-.55-.44-.03-1.3.62-1.03 5.3 2.26 15.1 5.28 26.25 2.99 13.13-2.68 32.72-28.38 40.55-39.32.42-.59 1.34-.07 1.04.6C122.9 17 108.25 47 94.58 51.78c-13.3 4.65-27.95-5.24-34.53-10.56"/><path class="cls-1" d="M67.15 53.48c-.15-.19-.22-.41-.12-.62.21-.4.81-.26 1.22-.07 6.6 3.13 14.24 5.58 21.6 5.7 8.37.14 15.14-4.52 21.7-9.23 6.66-4.78 12.89-10.16 18.79-15.84.42-.41 1.08.14.75.63-4.79 7.2-9.96 14.2-16.06 20.36-5.47 5.52-12.28 12.08-20.52 12.28-2.97.07-5.74-.73-8.47-1.82-6.68-2.65-12.66-6.8-18.49-11-.14-.1-.3-.24-.41-.38"/></g></svg>