<svg id="Layer_2" data-name="Layer 2" xmlns="http://www.w3.org/2000/svg" viewBox="0 0 278.31 51.22"><defs><style>.cls-1{fill:#5d2467}.cls-2{fill:#e5e069}</style></defs><g id="Layer_1-2" data-name="Layer 1"><path class="cls-1" d="M81.85 21.7c.85-.57 1.91-.85 3.18-.85 1.39 0 2.53.34 3.41 1.01.88.67 1.51 1.61 1.88 2.83l3.81-1.06c-.64-1.95-1.74-3.49-3.3-4.63-1.56-1.14-3.49-1.71-5.79-1.71-2 0-3.73.44-5.18 1.31-1.45.87-2.57 2.09-3.35 3.66-.78 1.57-1.17 3.39-1.17 5.46s.39 3.9 1.17 5.46c.78 1.57 1.9 2.79 3.35 3.66 1.45.87 3.18 1.31 5.18 1.31 2.3 0 4.23-.57 5.79-1.71 1.56-1.14 2.66-2.68 3.3-4.63l-3.81-1.06c-.37 1.2-1 2.15-1.88 2.82-.88.68-2.02 1.01-3.41 1.01-1.27 0-2.33-.28-3.18-.85-.85-.57-1.49-1.36-1.91-2.39-.43-1.03-.64-2.24-.64-3.63s.21-2.6.64-3.63c.43-1.03 1.06-1.83 1.91-2.39M109.14 22.15c-1.2-.8-2.65-1.21-4.36-1.21-1.61 0-3.03.36-4.27 1.09-1.24.73-2.21 1.75-2.91 3.07-.7 1.32-1.06 2.87-1.06 4.65 0 1.63.36 3.08 1.08 4.34s1.72 2.25 2.99 2.97c1.27.72 2.74 1.08 4.41 1.08 1.57 0 3.02-.41 4.34-1.24 1.32-.83 2.29-1.98 2.91-3.47l-4.11-1.18c-.3.66-.74 1.17-1.31 1.52-.57.35-1.26.53-2.07.53-1.28 0-2.25-.42-2.91-1.25-.48-.61-.78-1.4-.91-2.38h11.44c.17-1.97-.03-3.69-.6-5.15-.57-1.46-1.46-2.59-2.66-3.4m-4.18 2.35c1.2 0 2.06.37 2.59 1.09.35.48.58 1.16.7 2.04h-7.16c.16-.75.42-1.38.79-1.86.66-.85 1.69-1.28 3.09-1.28M115.79 37.69h4.11v-8.81h7.36v-4.11h-7.36v-4.7h9.17v-4.11h-13.28v21.73zM143.03 22.15c-1.2-.8-2.65-1.21-4.36-1.21-1.61 0-3.03.36-4.27 1.09-1.24.73-2.21 1.75-2.91 3.07-.7 1.32-1.06 2.87-1.06 4.65 0 1.63.36 3.08 1.08 4.34a7.826 7.826 0 0 0 2.99 2.97c1.27.72 2.74 1.08 4.41 1.08 1.57 0 3.02-.41 4.34-1.24 1.32-.83 2.29-1.98 2.91-3.47l-4.11-1.18c-.3.66-.74 1.17-1.31 1.52-.57.35-1.26.53-2.07.53-1.28 0-2.25-.42-2.91-1.25-.48-.61-.78-1.4-.91-2.38h11.44c.17-1.97-.03-3.69-.6-5.15-.57-1.46-1.46-2.59-2.66-3.4m-4.18 2.35c1.2 0 2.06.37 2.59 1.09.35.48.58 1.16.7 2.04h-7.16c.16-.75.42-1.38.79-1.86.66-.85 1.69-1.28 3.09-1.28M160.73 29.07c-.75-.43-1.74-.8-2.98-1.12-1.27-.32-2.21-.58-2.83-.79-.62-.2-1.03-.4-1.22-.59s-.29-.43-.29-.71c0-.47.23-.84.69-1.09.46-.25 1.06-.35 1.82-.3.77.06 1.39.27 1.84.62.45.35.71.83.78 1.43l4.2-.75c-.14-.99-.52-1.84-1.12-2.57-.61-.73-1.41-1.28-2.39-1.68-.99-.39-2.12-.59-3.4-.59s-2.46.21-3.43.63c-.97.42-1.72 1.01-2.26 1.78-.53.77-.8 1.68-.8 2.72 0 .83.18 1.55.53 2.14.35.59.93 1.09 1.72 1.52.79.42 1.86.8 3.18 1.15 1.18.31 2.05.56 2.6.76.56.19.92.39 1.08.58.16.2.24.46.24.78 0 .51-.2.91-.6 1.2-.4.29-.97.43-1.72.43-.91 0-1.65-.22-2.24-.65-.59-.43-.97-1.03-1.14-1.8l-4.2.63c.27 1.7 1.04 3.02 2.3 3.95s2.92 1.4 4.97 1.4 3.8-.48 5.01-1.43 1.81-2.27 1.81-3.94c0-.85-.17-1.57-.51-2.17-.34-.6-.89-1.11-1.64-1.54M175.98 24.56v-3.17h-4.71v-4.53h-4.1v4.53h-2.78v3.17h2.78v6.22c0 .98.01 1.85.03 2.62.02.77.23 1.53.63 2.27.44.8 1.09 1.37 1.94 1.73.85.36 1.82.55 2.9.57 1.08.02 2.19-.07 3.31-.28v-3.41c-.97.13-1.85.17-2.64.12-.79-.05-1.37-.36-1.74-.93-.19-.3-.29-.71-.31-1.22-.02-.51-.02-1.08-.02-1.71v-5.98h4.71Z"/><path class="cls-2" d="M184.51 15.96h-2.22v21.73h12.55v-2.12h-10.33V15.96zM208.38 22.04c-1.15-.73-2.54-1.1-4.17-1.1s-2.96.36-4.11 1.08c-1.15.72-2.04 1.72-2.66 3.01-.62 1.29-.94 2.79-.94 4.5s.31 3.17.92 4.47c.61 1.3 1.49 2.31 2.64 3.05 1.15.73 2.53 1.1 4.15 1.1s2.99-.36 4.15-1.09c1.16-.72 2.04-1.73 2.66-3.02.61-1.29.92-2.79.92-4.51s-.3-3.17-.91-4.46c-.61-1.29-1.49-2.3-2.64-3.03m-.13 12.18c-.89 1.2-2.23 1.8-4.05 1.8s-3.09-.59-4-1.77c-.91-1.18-1.36-2.76-1.36-4.72 0-1.27.19-2.39.58-3.36.39-.97.98-1.73 1.77-2.28.79-.55 1.79-.82 3.01-.82 1.8 0 3.15.58 4.04 1.75.89 1.17 1.34 2.74 1.34 4.71s-.44 3.48-1.33 4.69M216.18 40.33c0 .89-.22 1.52-.66 1.89-.44.38-1.02.57-1.76.57h-.92v2.14h1.58c1.34 0 2.33-.33 2.98-1 .65-.67.97-1.68.97-3.04v-19.5h-2.2v18.94ZM216.18 15.81h2.2v2.49h-2.2zM223.12 21.39h2.22v16.3h-2.22zM223.12 15.81h2.22v2.49h-2.22zM240.01 29.56c-.86-.42-2.03-.82-3.53-1.21-1.28-.32-2.26-.62-2.95-.89-.69-.27-1.16-.56-1.43-.87-.26-.31-.39-.68-.39-1.11 0-.78.36-1.4 1.09-1.86.72-.47 1.67-.69 2.82-.66 1.23.02 2.24.31 3.04.87.8.56 1.27 1.32 1.43 2.27l2.26-.41c-.11-.95-.46-1.78-1.06-2.49-.59-.71-1.38-1.27-2.35-1.67s-2.07-.6-3.3-.6-2.3.2-3.23.58c-.93.39-1.65.93-2.17 1.63-.52.7-.78 1.51-.78 2.44 0 .77.17 1.41.53 1.94.35.53.95.99 1.78 1.4.83.4 1.99.81 3.47 1.21 1.38.37 2.41.69 3.11.97.69.27 1.15.57 1.38.88.23.32.34.73.34 1.23 0 .9-.36 1.6-1.07 2.12-.71.52-1.69.78-2.93.78s-2.33-.28-3.19-.82c-.86-.55-1.41-1.28-1.65-2.21l-2.26.38c.28 1.47 1.04 2.62 2.27 3.44 1.23.82 2.8 1.24 4.72 1.24s3.57-.44 4.72-1.32c1.14-.88 1.71-2.09 1.71-3.63 0-.85-.18-1.55-.54-2.13-.36-.57-.97-1.07-1.83-1.49M249.59 16.87h-2.2v4.53h-3.49v1.9h3.49v8.5c0 .79.01 1.5.04 2.12.02.62.18 1.23.48 1.83.36.72.89 1.26 1.59 1.6.7.34 1.49.53 2.39.57.89.04 1.79-.04 2.71-.23v-1.95c-1.17.19-2.15.22-2.93.09-.79-.13-1.37-.53-1.73-1.21-.19-.35-.29-.76-.31-1.22-.01-.46-.02-1.03-.02-1.71v-8.41h4.99v-1.9h-4.99v-4.53ZM258.1 21.39h2.22v16.3h-2.22zM258.1 15.81h2.22v2.49h-2.22zM269.68 29.54l7.63-8.15h-2.96l-7.27 7.85V15.96h-2.23l-.02 21.73h2.25v-7.84l8 7.84h3.23l-8.63-8.15z"/><path class="cls-1" d="M44.06 38.81c.38-.46 1.1 0 .83.53l-.02.05c-.16.3-.33.59-.5.89-.16.3-.35.58-.54.87-.19.29-.37.58-.58.85l-.62.82c-.44.53-.88 1.06-1.38 1.55-.47.51-1 .96-1.52 1.43l-.81.66-.21.16-.21.15-.43.3-.43.3c-.07.05-.15.1-.22.15l-.23.14c-.3.19-.6.37-.91.55l-.94.5-.23.12c-.08.04-.16.07-.24.11l-.48.22-.49.22c-.08.04-.16.07-.25.1l-.25.1c-.33.12-.67.26-1 .38-1.35.46-2.75.79-4.18 1l-.54.07-.27.04-.27.02-.54.04-.27.02h-.14l-.13.01-1.08.03h-.01l-1.08-.03c-1.45-.07-2.89-.26-4.31-.59-1.42-.32-2.81-.77-4.16-1.33-.33-.15-.67-.29-1-.45l-.98-.49-.96-.54c-.32-.19-.62-.39-.94-.58-2.47-1.6-4.67-3.63-6.47-6.01l-.66-.9-.61-.94c-.2-.32-.38-.64-.57-.97-.1-.16-.18-.33-.27-.49l-.26-.5c-.67-1.34-1.23-2.74-1.65-4.18l-.15-.54c-.05-.18-.11-.36-.15-.55L.5 31c-.07-.37-.13-.74-.2-1.11-.04-.19-.06-.37-.08-.56l-.07-.56A25.721 25.721 0 0 1 2.31 15.4c1.26-2.78 3.01-5.36 5.17-7.57 2.16-2.2 4.73-4.04 7.55-5.37 1.41-.67 2.89-1.2 4.4-1.6 1.51-.4 3.06-.67 4.63-.8l1.18-.07h1.18c.2-.02.39 0 .59 0l.59.02h.29l.29.04.59.05c1.57.15 3.12.45 4.64.88 1.52.43 3 .99 4.42 1.68s2.78 1.51 4.06 2.43c1.42 1.02 2.78 2.14 3.96 3.44 1.2 1.32 2.31 2.75 2.16 4.63a4.61 4.61 0 0 1-4.95 4.23c-.89-.07-1.71-.4-2.43-.93-.79-.58-1.38-1.38-1.99-2.13-1.31-1.58-3-2.82-4.8-3.78-.94-.5-1.93-.92-2.94-1.26-2.03-.66-4.17-.99-6.32-.91-1.07.04-2.14.17-3.2.4s-2.1.54-3.1.95c-2.01.82-3.88 2.01-5.51 3.5a19.382 19.382 0 0 0-5.34 8.34c-.35 1.07-.59 2.17-.74 3.28-.15 1.11-.19 2.24-.15 3.38l.02.42c0 .14.01.28.03.42l.09.85.13.84c.02.14.06.28.08.42l.09.42c.51 2.22 1.4 4.37 2.67 6.3a20.375 20.375 0 0 0 18.17 9.12h.23c.08-.01.15-.02.23-.02l.45-.04.45-.04.45-.06c.6-.07 1.2-.21 1.8-.32.3-.07.59-.15.89-.22l.22-.06.22-.06.44-.14.44-.14c.07-.02.15-.05.22-.07l.22-.08.87-.33c.28-.12.56-.25.85-.37l.21-.09c.07-.03.14-.06.21-.1l.41-.21c.56-.27 1.09-.59 1.64-.9l.78-.51c.27-.17.52-.36.77-.54.52-.36 1-.78 1.5-1.18.96-.84 1.86-1.76 2.71-2.75 0-.01.02-.02.03-.03"/><path class="cls-2" d="M36.18 22.75c-.26-.21-.01-.62.3-.49 2.54 1.08 7.23 2.53 12.58 1.43C55.35 22.4 64.73 10.1 68.48 4.85c.2-.28.64-.03.5.29-2.69 6.01-9.7 20.38-16.25 22.67-6.37 2.23-13.39-2.51-16.54-5.06"/><path class="cls-2" d="M34.92 27.81c-.08-.1-.12-.21-.06-.32.11-.21.42-.14.63-.03 3.43 1.63 7.41 2.9 11.23 2.96 4.35.07 7.87-2.35 11.28-4.8 3.46-2.49 6.7-5.28 9.77-8.24.22-.21.56.07.39.33-2.49 3.74-5.18 7.39-8.35 10.58-2.85 2.87-6.38 6.28-10.67 6.38-1.54.04-2.98-.38-4.4-.94-3.48-1.38-6.58-3.54-9.62-5.72a.796.796 0 0 1-.21-.2"/></g></svg>