<svg id="Layer_2" data-name="Layer 2" xmlns="http://www.w3.org/2000/svg" viewBox="0 0 388.4 99.13"><defs><style>.cls-1{fill:#5d2467}.cls-2{fill:#e5e069}</style></defs><g id="Layer_1-2" data-name="Layer 1"><path class="cls-1" d="M152.81 7.32c1.41-.94 3.17-1.41 5.28-1.41 2.31 0 4.2.56 5.66 1.68 1.46 1.12 2.5 2.68 3.12 4.7l6.33-1.76c-1.06-3.23-2.89-5.8-5.49-7.69-2.6-1.89-5.8-2.84-9.62-2.84-3.32 0-6.19.72-8.6 2.17s-4.26 3.47-5.57 6.07c-1.3 2.6-1.95 5.63-1.95 9.08s.65 6.48 1.95 9.08c1.3 2.6 3.16 4.63 5.57 6.07s5.28 2.17 8.6 2.17c3.82 0 7.02-.95 9.62-2.84 2.59-1.89 4.42-4.46 5.49-7.69l-6.33-1.76c-.62 2-1.66 3.56-3.12 4.69-1.46 1.12-3.35 1.69-5.66 1.69-2.11 0-3.87-.47-5.28-1.41-1.41-.94-2.47-2.26-3.18-3.97-.71-1.71-1.06-3.72-1.06-6.03s.35-4.32 1.06-6.03c.71-1.71 1.77-3.03 3.18-3.97M196.17 10.16c-1.83-1.23-4.06-1.85-6.67-1.85-2.46 0-4.64.56-6.54 1.67-1.89 1.12-3.38 2.68-4.46 4.7s-1.62 4.39-1.62 7.11c0 2.49.55 4.71 1.65 6.64 1.1 1.93 2.62 3.45 4.57 4.55 1.95 1.1 4.2 1.65 6.76 1.65 2.4 0 4.61-.63 6.64-1.89 2.02-1.26 3.51-3.03 4.45-5.31l-6.28-1.8c-.46 1.02-1.13 1.79-2.01 2.33-.88.54-1.93.81-3.16.81-1.96 0-3.44-.64-4.45-1.91-.74-.93-1.2-2.14-1.4-3.64h17.51c.26-3.02-.05-5.64-.92-7.88-.88-2.23-2.23-3.97-4.06-5.2m-6.4 3.6c1.83 0 3.15.56 3.96 1.68.53.73.88 1.78 1.07 3.13h-10.98c.25-1.15.65-2.11 1.23-2.85 1.01-1.3 2.58-1.95 4.72-1.95M206.36 33.95h6.28V20.46h11.27v-6.28h-11.27v-7.2h14.04V.69h-20.32v33.26zM248.05 10.16c-1.83-1.23-4.06-1.85-6.67-1.85-2.46 0-4.64.56-6.54 1.67-1.89 1.12-3.38 2.68-4.46 4.7s-1.62 4.39-1.62 7.11c0 2.49.55 4.71 1.65 6.64 1.1 1.93 2.62 3.45 4.57 4.55 1.95 1.1 4.2 1.65 6.76 1.65 2.4 0 4.61-.63 6.64-1.89 2.02-1.26 3.51-3.03 4.45-5.31l-6.28-1.8c-.46 1.02-1.13 1.79-2.01 2.33-.88.54-1.93.81-3.16.81-1.96 0-3.44-.64-4.45-1.91-.74-.93-1.2-2.14-1.4-3.64h17.51c.26-3.02-.05-5.64-.92-7.88-.88-2.23-2.23-3.97-4.06-5.2m-6.4 3.6c1.83 0 3.15.56 3.96 1.68.53.73.88 1.78 1.07 3.13h-10.98c.25-1.15.65-2.11 1.23-2.85 1.01-1.3 2.58-1.95 4.72-1.95M275.13 20.75c-1.15-.65-2.67-1.23-4.56-1.72-1.94-.49-3.38-.89-4.33-1.2-.95-.31-1.57-.61-1.87-.9-.3-.29-.45-.65-.45-1.08 0-.72.35-1.28 1.05-1.66.7-.39 1.63-.54 2.78-.46 1.18.09 2.12.41 2.82.95.69.54 1.09 1.27 1.2 2.19l6.42-1.16c-.22-1.51-.79-2.82-1.72-3.93-.93-1.11-2.15-1.96-3.66-2.56-1.51-.6-3.24-.9-5.2-.9s-3.77.32-5.25.96c-1.49.64-2.64 1.55-3.45 2.73s-1.22 2.57-1.22 4.17c0 1.28.27 2.37.81 3.27.54.9 1.42 1.67 2.63 2.32 1.22.65 2.84 1.23 4.87 1.75 1.8.48 3.13.86 3.98 1.16.85.29 1.4.59 1.65.89.25.3.37.7.37 1.19 0 .79-.31 1.4-.92 1.84-.62.44-1.49.66-2.63.66-1.39 0-2.53-.33-3.43-.99s-1.48-1.58-1.74-2.75l-6.42.97c.42 2.6 1.59 4.62 3.52 6.04s4.47 2.14 7.61 2.14 5.82-.73 7.67-2.19c1.85-1.46 2.77-3.47 2.77-6.03 0-1.29-.26-2.4-.78-3.31-.52-.92-1.36-1.7-2.51-2.36M298.46 13.86V9.01h-7.21V2.08h-6.28v6.93h-4.25v4.85h4.25v9.52c0 1.49.02 2.83.05 4.01s.35 2.34.97 3.48c.68 1.22 1.67 2.1 2.97 2.64 1.3.55 2.78.84 4.43.88 1.66.04 3.34-.1 5.07-.43v-5.22c-1.48.2-2.83.26-4.04.19-1.22-.08-2.1-.55-2.66-1.43-.29-.46-.45-1.08-.47-1.86-.02-.78-.04-1.65-.04-2.62v-9.16h7.21Z"/><path class="cls-2" d="M206.42 41.21h-4.3v42.16h24.33v-4.13h-20.03V41.21zM252.73 52.99c-2.24-1.42-4.93-2.12-8.1-2.12s-5.74.7-7.98 2.09c-2.23 1.4-3.96 3.34-5.17 5.84s-1.82 5.41-1.82 8.73.6 6.15 1.79 8.67c1.19 2.52 2.9 4.49 5.12 5.92 2.23 1.42 4.91 2.14 8.05 2.14s5.81-.7 8.05-2.11c2.24-1.41 3.96-3.36 5.15-5.87s1.79-5.42 1.79-8.74-.59-6.14-1.77-8.65c-1.18-2.51-2.89-4.47-5.12-5.89m-.25 23.63c-1.72 2.33-4.33 3.5-7.85 3.5s-6-1.15-7.76-3.44c-1.76-2.29-2.64-5.34-2.64-9.15 0-2.46.38-4.63 1.13-6.51.75-1.88 1.89-3.36 3.42-4.42s3.48-1.6 5.84-1.6c3.49 0 6.11 1.13 7.83 3.4 1.73 2.26 2.59 5.31 2.59 9.14s-.86 6.76-2.58 9.09M267.85 40.92h4.28v4.83h-4.28zM267.85 88.5c0 1.72-.43 2.94-1.27 3.68-.85.73-1.99 1.1-3.41 1.1h-1.79v4.16h3.07c2.6 0 4.52-.65 5.78-1.95 1.26-1.3 1.89-3.26 1.89-5.9V51.75h-4.27V88.5ZM281.32 51.75h4.3v31.62h-4.3zM281.32 40.92h4.3v4.83h-4.3zM314.08 67.59c-1.66-.82-3.94-1.6-6.85-2.34-2.48-.62-4.39-1.2-5.72-1.73-1.34-.53-2.26-1.09-2.77-1.68-.51-.59-.76-1.31-.76-2.15 0-1.5.7-2.71 2.11-3.62 1.41-.91 3.23-1.33 5.47-1.27 2.38.04 4.35.6 5.9 1.68 1.55 1.08 2.47 2.55 2.77 4.41l4.39-.79c-.21-1.83-.9-3.45-2.05-4.83-1.15-1.39-2.67-2.46-4.55-3.24-1.88-.77-4.02-1.16-6.4-1.16s-4.47.38-6.27 1.13c-1.8.75-3.2 1.81-4.22 3.16-1.02 1.36-1.52 2.93-1.52 4.73 0 1.48.34 2.74 1.03 3.76.68 1.02 1.83 1.93 3.45 2.71s3.87 1.56 6.73 2.34c2.68.72 4.68 1.35 6.03 1.87 1.35.53 2.24 1.1 2.68 1.71.44.61.66 1.41.66 2.39 0 1.74-.69 3.11-2.08 4.11-1.39 1-3.28 1.51-5.68 1.51s-4.52-.53-6.19-1.6-2.74-2.49-3.21-4.29l-4.39.73c.55 2.85 2.02 5.08 4.41 6.68 2.39 1.6 5.44 2.4 9.15 2.4s6.93-.85 9.15-2.56c2.21-1.71 3.32-4.05 3.32-7.04 0-1.64-.35-3.02-1.05-4.13-.7-1.11-1.88-2.08-3.54-2.9M332.68 42.97h-4.28v8.78h-6.76v3.69h6.76v16.48c0 1.54.02 2.91.07 4.11.05 1.2.36 2.39.92 3.56.7 1.41 1.73 2.44 3.09 3.1 1.36.66 2.9 1.03 4.63 1.11 1.73.08 3.48-.07 5.26-.44v-3.78c-2.27.37-4.16.43-5.7.18-1.53-.25-2.65-1.03-3.35-2.34-.37-.68-.57-1.47-.6-2.36-.03-.89-.04-2-.04-3.32V55.43h9.69v-3.69h-9.69v-8.78ZM349.19 40.92h4.3v4.83h-4.3zM349.19 51.75h4.3v31.62h-4.3zM371.65 67.56l14.81-15.81h-5.74l-14.11 15.22V41.21h-4.33l-.03 42.16h4.36V68.15l15.52 15.22h6.27l-16.75-15.81z"/><path class="cls-1" d="M85.28 75.1c.73-.88 2.12.01 1.61 1.03-.02.03-.03.06-.05.09-.32.58-.64 1.15-.96 1.72-.31.59-.68 1.13-1.05 1.69-.37.55-.71 1.13-1.12 1.65l-1.2 1.59s0 .01-.01.02c-.86 1.01-1.71 2.06-2.66 3-.91.99-1.93 1.86-2.93 2.78l-.01.01-1.58 1.27-.4.32c-.13.1-.28.2-.41.3l-.83.59-.84.59c-.14.1-.28.19-.43.28l-.43.27c-.58.36-1.16.72-1.75 1.07l-1.82.96-.46.24c-.15.08-.31.14-.47.22l-.94.43-.94.42c-.16.07-.32.13-.48.2l-.48.18c-.64.24-1.29.5-1.94.73-2.62.88-5.33 1.53-8.09 1.93l-1.04.14-.52.07-.52.04-1.04.08-.52.04-.26.02h-.26l-2.09.07h-.02l-2.09-.05a48.168 48.168 0 0 1-16.41-3.71c-.65-.29-1.3-.56-1.94-.86l-1.91-.95-1.86-1.04c-.61-.36-1.21-.75-1.81-1.12A49.466 49.466 0 0 1 9.79 79.78c-.42-.58-.85-1.16-1.27-1.75l-1.19-1.81c-.38-.62-.73-1.25-1.1-1.87-.19-.31-.35-.63-.52-.96l-.5-.96c-1.3-2.59-2.38-5.31-3.2-8.1l-.3-1.05c-.1-.35-.21-.7-.28-1.06l-.49-2.13c-.13-.72-.25-1.44-.38-2.16-.07-.36-.11-.72-.15-1.09l-.13-1.09c-.32-2.91-.37-5.86-.16-8.8.4-5.87 1.89-11.68 4.34-17.07a51.087 51.087 0 0 1 10-14.65c4.18-4.26 9.15-7.81 14.61-10.4 2.73-1.3 5.59-2.31 8.51-3.1C40.5.96 43.5.43 46.53.17l2.28-.14L51.09 0c.38-.01.76.02 1.14.03l1.14.05.57.02.57.05 1.14.1c3.03.3 6.04.87 8.98 1.71 2.93.83 5.8 1.92 8.55 3.26a53.43 53.43 0 0 1 7.86 4.71c2.74 1.98 5.37 4.15 7.65 6.66 2.32 2.55 4.47 5.32 4.18 8.95-.39 4.91-4.68 8.57-9.58 8.18-1.72-.14-3.32-.77-4.7-1.79-1.52-1.13-2.66-2.67-3.86-4.11-2.53-3.05-5.8-5.45-9.29-7.32-1.82-.98-3.73-1.78-5.69-2.43-3.93-1.28-8.08-1.92-12.23-1.76-2.08.08-4.15.33-6.2.77-2.04.44-4.06 1.04-6 1.85a36.01 36.01 0 0 0-10.65 6.77 37.046 37.046 0 0 0-7.81 10.17c-1 1.91-1.85 3.92-2.51 5.98-.67 2.06-1.14 4.19-1.42 6.35-.29 2.16-.38 4.35-.28 6.53l.04.82c.02.27.02.55.06.82l.18 1.64.26 1.63c.04.28.11.54.16.81l.17.81c.98 4.3 2.71 8.46 5.17 12.2a39.27 39.27 0 0 0 9.22 9.82c3.63 2.74 7.79 4.84 12.19 6.18 4.4 1.34 9.07 1.92 13.73 1.65l.44-.02c.15 0 .29 0 .44-.03l.87-.08.88-.08.87-.12c1.17-.14 2.31-.4 3.48-.61.57-.14 1.14-.29 1.72-.43l.43-.11c.14-.03.29-.07.43-.12l.85-.27.85-.26c.14-.04.29-.08.43-.13l.42-.16 1.68-.63c.55-.23 1.09-.49 1.64-.72l.41-.18c.14-.06.28-.12.41-.19l.8-.41c1.09-.52 2.11-1.15 3.17-1.74 0 0 .01 0 .02-.01l1.52-.99c.52-.32 1-.69 1.5-1.05 1.01-.7 1.93-1.51 2.9-2.28a53.75 53.75 0 0 0 5.25-5.31c.02-.02.03-.04.05-.06"/><path class="cls-2" d="M60.43 41.48c-.55-.44-.03-1.31.62-1.03 5.33 2.28 15.2 5.31 26.42 3.01 13.21-2.7 32.93-28.56 40.81-39.57.43-.6 1.35-.07 1.05.6-5.64 12.62-20.39 42.81-34.15 47.62-13.39 4.68-28.12-5.27-34.75-10.63"/><path class="cls-2" d="M67.58 53.83c-.15-.19-.23-.41-.12-.62.21-.4.81-.26 1.22-.07 6.65 3.15 14.33 5.61 21.74 5.74 8.43.14 15.24-4.55 21.84-9.28 6.7-4.81 12.98-10.22 18.91-15.94.43-.41 1.09.14.76.64-4.82 7.24-10.03 14.29-16.16 20.49-5.51 5.56-12.35 12.16-20.65 12.35-2.98.07-5.77-.74-8.52-1.83-6.73-2.67-12.74-6.84-18.61-11.07-.15-.11-.3-.24-.41-.39"/></g></svg>