<svg version="1.2" xmlns="http://www.w3.org/2000/svg" viewBox="0 0 405 78" width="405" height="78">
	<title>Klasör 1</title>
	<style>
		.s0 { fill: #5d2166 } 
		.s1 { fill: #ff6600 } 
	</style>
	<g id="Klasör 1">
		<path id="Path 8" fill-rule="evenodd" class="s0" d="m118.9 34.7q-1.1 2.5-1.1 6 0 3.4 1.1 5.9 1 2.6 3.1 4 2.1 1.3 5.2 1.3 3.4 0 5.6-1.6 2.2-1.7 3.1-4.7l6.3 1.8q-1.6 4.8-5.5 7.6-3.8 2.8-9.5 2.8-4.9 0-8.5-2.2-3.6-2.1-5.5-6-1.9-3.8-1.9-8.9 0-5.2 1.9-9 1.9-3.9 5.5-6 3.6-2.2 8.5-2.2 5.7 0 9.5 2.8 3.9 2.8 5.5 7.6l-6.3 1.8q-0.9-3-3.1-4.7-2.2-1.6-5.6-1.6-3.1 0-5.2 1.4-2.1 1.4-3.1 3.9zm50 4q1.3 3.3 0.9 7.8h-17.3q0.3 2.2 1.4 3.6 1.5 1.9 4.4 1.9 1.8 0 3.1-0.8 1.3-0.8 2-2.3l6.2 1.8q-1.4 3.4-4.4 5.2-3 1.9-6.5 1.9-3.8 0-6.7-1.6-2.9-1.7-4.5-4.5-1.7-2.9-1.7-6.6 0-4.1 1.6-7 1.6-3 4.4-4.7 2.8-1.7 6.5-1.7 3.9 0 6.6 1.9 2.7 1.8 4 5.1zm-15 0.4q-0.8 1.1-1.2 2.8h10.9q-0.3-2-1.1-3.1-1.2-1.7-3.9-1.7-3.2 0-4.7 2zm21.1-14.9h20.1v6.2h-13.9v7.1h11.2v6.3h-11.2v13.3h-6.2zm45.3 14.5q1.3 3.3 0.9 7.8h-17.3q0.2 2.2 1.3 3.6 1.5 1.9 4.4 1.9 1.9 0 3.2-0.8 1.3-0.8 2-2.3l6.2 1.8q-1.4 3.4-4.4 5.2-3 1.9-6.6 1.9-3.8 0-6.7-1.6-2.9-1.7-4.5-4.5-1.6-2.9-1.6-6.6 0-4 1.6-7 1.6-3 4.4-4.7 2.8-1.6 6.4-1.6 3.9 0 6.6 1.8 2.8 1.8 4.1 5.1zm-15.1 0.4q-0.8 1.1-1.2 2.8h10.9q-0.3-2-1.1-3.1-1.2-1.7-3.9-1.6-3.2 0-4.7 1.9zm40.3 7.3q0.8 1.4 0.8 3.3 0 3.8-2.7 5.9-2.8 2.2-7.6 2.2-4.7 0-7.6-2.1-2.8-2.1-3.4-6l6.3-0.9q0.4 1.7 1.7 2.7 1.4 1 3.4 1 1.7 0 2.6-0.7 0.9-0.6 0.9-1.8 0-0.7-0.3-1.2-0.4-0.4-1.7-0.9-1.2-0.4-3.9-1.1-3-0.8-4.8-1.7-1.8-1-2.6-2.3-0.8-1.4-0.8-3.3 0-2.3 1.2-4.1 1.2-1.7 3.4-2.7 2.2-0.9 5.2-0.9 2.9 0 5.1 0.8 2.3 0.9 3.7 2.6 1.4 1.6 1.7 3.9l-6.4 1.1q-0.1-1.4-1.2-2.2-1-0.8-2.8-0.9-1.7-0.1-2.7 0.5-1.1 0.5-1.1 1.6 0 0.6 0.5 1.1 0.4 0.4 1.8 0.9 1.5 0.4 4.3 1.2 2.8 0.7 4.5 1.7 1.7 0.9 2.5 2.3zm13.5-9.2v9.1q0 1.4 0 2.6 0.1 1.1 0.5 1.8 0.8 1.3 2.6 1.4 1.8 0.2 4-0.1v5.1q-2.5 0.5-5 0.5-2.4-0.1-4.4-0.9-1.9-0.8-2.9-2.6-0.9-1.7-1-3.5 0-1.7 0-3.9v-9.5h-4.2v-4.8h4.2v-6.8h6.2v6.8h7.1v4.8z"/>
		<path id="Path 9" fill-rule="evenodd" class="s1" d="m306 42.2q0 0.6 0 0.8 0 4.5-1.6 8-1.6 3.5-4.8 5.5-3.2 2-8 2-3.5 0-6.3-1.2-2.8-1.2-4.7-3.4-2-2.3-3-5.4-1-3.2-1-7.1 0-5.2 1.8-9 1.7-3.9 5.1-6 3.4-2.1 8.1-2.1 5.2 0 8.5 2.4 3.3 2.5 4.6 6.6l-3.3 0.9q-1.1-3.1-3.6-4.9-2.4-1.8-6.1-1.8-3.9 0-6.4 1.8-2.6 1.7-3.9 4.8-1.3 3.2-1.3 7.3 0 4.1 1.3 7.2 1.3 3.2 3.9 4.9 2.5 1.8 6.4 1.8 3.6 0 5.9-1.3 2.3-1.4 3.5-4 1.2-2.5 1.3-6h-7.6v-2.9h11.2q0 0.5 0 1.1zm5.1-17.9h3.3v33.6h-3.3zm30.8 14.4q1.4 3 1.4 6.8 0 3.9-1.4 6.8-1.4 3-4 4.6-2.6 1.6-6.3 1.6-3.7 0-6.3-1.6-2.6-1.7-4-4.6-1.4-3-1.4-6.8 0-3.9 1.4-6.8 1.5-2.9 4.1-4.6 2.6-1.6 6.2-1.6 3.7 0 6.3 1.6 2.6 1.7 4 4.6zm-2.2 6.8q0-4.5-2-7.1-2-2.7-6.1-2.7-2.8 0-4.6 1.3-1.8 1.2-2.6 3.4-0.9 2.2-0.9 5.1 0 4.5 2 7.1 2.1 2.7 6.1 2.7 4.1 0 6.1-2.7 2-2.7 2-7.1zm29.4-6.6q1.3 2.9 1.3 6.6 0 3.7-1.3 6.6-1.3 3-3.8 4.7-2.4 1.7-5.9 1.7-3.4 0-5.7-1.7-1.4-1-2.4-2.4v3.5h-3v-33h3.4v11.2q0.9-1.1 2-1.9 2.4-1.7 5.9-1.7 3.3 0 5.8 1.7 2.4 1.7 3.7 4.7zm-2.3 6.6q0-2.8-0.8-5-0.9-2.3-2.6-3.6-1.7-1.3-4.4-1.3-2.6 0-4.3 1.3-1.7 1.2-2.5 3.5-0.9 2.2-0.9 5.1 0 2.9 0.9 5.1 0.8 2.3 2.5 3.5 1.7 1.3 4.4 1.3 2.6 0 4.3-1.3 1.7-1.3 2.5-3.5 0.9-2.3 0.9-5.1zm27.9-5.7q0.1 1.4 0.1 2.7v15.4h-3v-4.1q-1.1 1.9-3 3.1-2.6 1.6-6.3 1.6-2.8 0-4.7-1-1.9-1-2.8-2.6-1-1.7-1-3.7 0-2 0.8-3.4 0.8-1.4 2.2-2.4 1.5-0.9 3.3-1.3 1.9-0.5 4.2-0.9 2.2-0.3 4.4-0.6 1.4-0.1 2.6-0.3c0-2.2-0.5-3.8-1.4-4.9q-1.5-1.7-5.1-1.7-2.6 0-4.3 1.1-1.8 1.2-2.5 3.6l-3.2-0.9q0.8-3.4 3.4-5.2 2.5-1.8 6.6-1.8 3.4 0 5.8 1.3 2.3 1.2 3.3 3.6 0.5 1.1 0.6 2.4zm-3.2 6.7q0-0.7 0-1.3-1.2 0.2-2.4 0.3-2 0.2-4 0.5-1.9 0.3-3.4 0.8-1.1 0.3-2.1 0.8-1 0.5-1.6 1.4-0.6 0.9-0.6 2.2 0 1.1 0.5 2.1 0.6 1 1.8 1.7 1.2 0.6 3.1 0.6 2.4 0 4.2-0.8 1.7-0.8 2.8-2.3 1.1-1.5 1.4-3.3 0.3-1.2 0.3-2.7zm9.7-22.2h3.4v33.6h-3.4z"/>
		<path id="Path 10" class="s0" d="m67.4 58.8c0.6-0.7 1.7 0 1.3 0.8q0 0 0 0.1-0.4 0.7-0.8 1.3c-0.2 0.5-0.5 0.9-0.8 1.3-0.3 0.5-0.6 0.9-0.9 1.3l-0.9 1.3q0 0 0 0c-0.7 0.8-1.4 1.6-2.1 2.3-0.7 0.8-1.5 1.5-2.3 2.2q0 0 0 0l-1.3 1-0.3 0.3q-0.1 0.1-0.3 0.2l-0.6 0.5-0.7 0.4q-0.2 0.1-0.3 0.2l-0.4 0.2q-0.7 0.5-1.3 0.9l-1.5 0.7-0.3 0.2q-0.2 0.1-0.4 0.2l-0.7 0.3-0.8 0.4q-0.1 0-0.3 0.1l-0.4 0.2q-0.8 0.2-1.5 0.5-3.1 1.1-6.4 1.5l-0.8 0.1-0.4 0.1h-0.4l-0.8 0.1h-0.4-0.2l-0.2 0.1h-1.7q0 0 0 0h-1.6q-3.3-0.2-6.5-0.9-3.3-0.8-6.3-2-0.8-0.4-1.6-0.7l-1.5-0.8-1.4-0.8q-0.7-0.4-1.4-0.9c-3.8-2.4-7.1-5.5-9.8-9.1q-0.5-0.6-1-1.3l-1-1.4q-0.4-0.8-0.8-1.5-0.2-0.4-0.4-0.8l-0.4-0.7q-1.5-3.1-2.5-6.3l-0.3-0.9q-0.1-0.4-0.2-0.8l-0.4-1.7q-0.1-0.8-0.2-1.7-0.1-0.4-0.2-0.8l-0.1-0.9q-0.3-3.4-0.1-6.8c0.3-4.6 1.5-9.2 3.4-13.4 1.9-4.2 4.5-8.1 7.8-11.5 3.3-3.3 7.2-6.1 11.5-8.1 2.1-1 4.3-1.8 6.6-2.4q3.5-0.9 7-1.2l1.8-0.2h1.8q0.4 0 0.9 0.1h0.9 0.4 0.5l0.9 0.1q3.5 0.4 7 1.4 3.4 0.9 6.7 2.5 3.2 1.6 6.1 3.7c2.2 1.6 4.2 3.2 6 5.2 1.8 2 3.5 4.2 3.3 7-0.3 3.9-3.7 6.7-7.5 6.4-1.3-0.1-2.6-0.6-3.7-1.4-1.2-0.9-2.1-2.1-3-3.2-2-2.4-4.5-4.3-7.3-5.7q-2.1-1.2-4.4-1.9c-3.1-1-6.3-1.5-9.6-1.4q-2.4 0.1-4.8 0.6-2.5 0.5-4.7 1.4c-3.1 1.3-5.9 3.1-8.4 5.3-2.4 2.3-4.5 5-6.1 8q-1.2 2.2-2 4.7-0.7 2.4-1.1 4.9-0.3 2.6-0.2 5.1v0.7q0.1 0.3 0.1 0.6l0.1 1.3 0.2 1.3q0.1 0.3 0.2 0.6l0.1 0.7c0.8 3.3 2.1 6.6 4 9.5 2 2.9 4.4 5.6 7.3 7.7 2.8 2.1 6.1 3.8 9.5 4.8 3.4 1.1 7.1 1.5 10.7 1.3h0.4q0.2 0 0.3 0l0.7-0.1h0.7q0.3-0.1 0.7-0.1c0.9-0.1 1.8-0.4 2.7-0.5q0.7-0.2 1.3-0.4h0.4q0.1-0.1 0.3-0.1l0.7-0.2 0.6-0.3q0.2 0 0.4-0.1l0.3-0.1 1.3-0.5q0.7-0.3 1.3-0.5l0.3-0.2q0.2 0 0.3-0.1l0.7-0.3c0.8-0.5 1.6-0.9 2.5-1.4q0 0 0 0l1.2-0.8q0.6-0.4 1.1-0.8c0.8-0.6 1.5-1.2 2.3-1.8q2.2-1.9 4.1-4.2 0 0 0 0z"/>
		<path id="Path 11" class="s1" d="m48 32.5c-0.4-0.4 0-1 0.5-0.8 4.2 1.8 11.9 4.1 20.7 2.3 10.3-2.1 25.7-22.3 31.9-30.9 0.3-0.5 1-0.1 0.8 0.4-4.4 9.9-15.9 33.5-26.7 37.3-10.5 3.7-22-4.1-27.2-8.3zm5.6 9.6c-0.1-0.1-0.2-0.3-0.1-0.4 0.2-0.4 0.6-0.2 1-0.1 5.2 2.5 11.2 4.4 17 4.5 6.6 0.1 11.9-3.6 17.1-7.3 5.2-3.7 10.1-8 14.8-12.4 0.3-0.4 0.8 0.1 0.6 0.4-3.8 5.7-7.9 11.2-12.7 16.1-4.3 4.3-9.7 9.5-16.2 9.6-2.3 0.1-4.5-0.5-6.6-1.4-5.3-2.1-10-5.3-14.6-8.7q-0.2-0.1-0.3-0.3z"/>
	</g>
</svg>