<svg id="Layer_2" data-name="Layer 2" xmlns="http://www.w3.org/2000/svg" viewBox="0 0 272.32 51.6"><defs><style>.cls-1{fill:#28ab84}.cls-2{fill:#5d2467}</style></defs><g id="Layer_1-2" data-name="Layer 1"><path class="cls-2" d="M81.6 20.44c.93-.62 2.09-.93 3.47-.93 1.52 0 2.76.37 3.72 1.1.96.73 1.65 1.77 2.05 3.09l4.17-1.16c-.7-2.13-1.9-3.82-3.61-5.06-1.71-1.25-3.82-1.87-6.33-1.87-2.19 0-4.08.48-5.66 1.43-1.59.95-2.81 2.29-3.66 4-.86 1.71-1.29 3.71-1.29 5.98s.43 4.26 1.29 5.98c.86 1.71 2.08 3.05 3.66 4 1.59.95 3.47 1.43 5.66 1.43 2.51 0 4.62-.62 6.33-1.87s2.91-2.93 3.61-5.06l-4.17-1.16c-.41 1.32-1.09 2.35-2.05 3.09s-2.2 1.11-3.72 1.11c-1.39 0-2.55-.31-3.47-.93-.93-.62-1.62-1.49-2.09-2.62-.47-1.12-.7-2.45-.7-3.97s.23-2.84.7-3.97c.47-1.12 1.16-2 2.09-2.62M110.14 22.31c-1.21-.81-2.67-1.22-4.39-1.22-1.62 0-3.06.37-4.3 1.1-1.25.74-2.22 1.77-2.93 3.09-.71 1.33-1.06 2.89-1.06 4.68 0 1.64.36 3.1 1.09 4.37s1.73 2.27 3.01 2.99c1.28.73 2.76 1.09 4.45 1.09 1.58 0 3.04-.42 4.37-1.25 1.33-.83 2.31-2 2.93-3.5l-4.13-1.18c-.31.67-.75 1.18-1.32 1.54-.58.36-1.27.53-2.08.53-1.29 0-2.26-.42-2.93-1.25-.49-.61-.79-1.41-.92-2.4h11.53c.17-1.99-.03-3.71-.61-5.18s-1.47-2.61-2.68-3.42m-4.21 2.37c1.21 0 2.08.37 2.61 1.1.35.48.58 1.17.7 2.06h-7.22c.16-.75.42-1.39.8-1.88.66-.86 1.7-1.29 3.11-1.29M116.85 37.97h4.13v-8.88h7.42v-4.13h-7.42v-4.74h9.25v-4.14h-13.38v21.89zM144.29 22.31c-1.21-.81-2.67-1.22-4.4-1.22-1.62 0-3.06.37-4.3 1.1-1.25.74-2.22 1.77-2.93 3.09-.71 1.33-1.06 2.89-1.06 4.68 0 1.64.36 3.1 1.09 4.37s1.73 2.27 3.01 2.99c1.28.73 2.76 1.09 4.45 1.09 1.58 0 3.04-.42 4.37-1.25 1.33-.83 2.31-2 2.93-3.5l-4.13-1.18c-.31.67-.75 1.18-1.32 1.54-.58.36-1.27.53-2.08.53-1.29 0-2.26-.42-2.93-1.25-.49-.61-.79-1.41-.92-2.4h11.53c.17-1.99-.03-3.71-.61-5.18s-1.47-2.61-2.68-3.42m-4.21 2.37c1.21 0 2.08.37 2.61 1.1.35.48.58 1.17.7 2.06h-7.22c.16-.75.42-1.39.8-1.88.66-.86 1.7-1.29 3.11-1.29M162.12 29.29c-.76-.43-1.76-.81-3-1.13-1.28-.32-2.23-.59-2.85-.79-.62-.2-1.03-.4-1.23-.59-.2-.19-.3-.43-.3-.71 0-.48.23-.84.69-1.1.46-.25 1.07-.36 1.83-.3.78.06 1.4.27 1.85.62.46.36.72.84.79 1.45l4.23-.76c-.14-.99-.52-1.85-1.13-2.58s-1.42-1.29-2.41-1.69c-.99-.4-2.13-.59-3.42-.59s-2.48.21-3.46.63c-.98.42-1.74 1.02-2.27 1.79-.54.78-.81 1.69-.81 2.74 0 .84.18 1.56.53 2.15.35.59.93 1.1 1.73 1.53.8.43 1.87.81 3.21 1.16 1.19.31 2.06.57 2.62.76.56.19.93.39 1.09.58.16.2.24.46.24.78 0 .52-.2.92-.61 1.21-.41.29-.98.43-1.73.43-.91 0-1.66-.22-2.26-.65-.59-.44-.98-1.04-1.15-1.81l-4.23.64c.27 1.71 1.05 3.04 2.32 3.98s2.94 1.41 5.01 1.41 3.83-.48 5.05-1.45c1.22-.96 1.83-2.29 1.83-3.97 0-.85-.17-1.58-.52-2.18-.34-.6-.9-1.12-1.65-1.55M177.48 24.75v-3.19h-4.74V17h-4.14v4.56h-2.8v3.19h2.8v6.26c0 .98 0 1.86.03 2.64.02.78.23 1.54.64 2.29.45.8 1.1 1.38 1.95 1.74.86.36 1.83.55 2.92.58 1.09.03 2.2-.07 3.34-.28v-3.44c-.97.13-1.86.17-2.66.12-.8-.05-1.38-.36-1.75-.94-.19-.3-.3-.71-.31-1.22s-.02-1.09-.02-1.73v-6.02h4.74Z"/><path class="cls-1" d="M197.03 26.38c.61-.35 1.13-.81 1.54-1.41.61-.89.91-1.93.91-3.12 0-1.01-.25-1.96-.74-2.84-.49-.88-1.2-1.58-2.13-2.12-.93-.54-2.05-.81-3.35-.81h-8.53v21.89h9.29c1.34 0 2.49-.26 3.47-.77.98-.52 1.73-1.24 2.25-2.17.52-.93.78-2.04.78-3.31 0-1.39-.39-2.58-1.17-3.59-.59-.76-1.37-1.34-2.33-1.74m-9.56-7.74h5.76c1.02 0 1.86.3 2.5.9.64.6.97 1.37.97 2.31 0 .69-.16 1.29-.46 1.79-.31.5-.73.89-1.26 1.17-.53.28-1.11.42-1.75.42h-5.76v-6.58Zm9.72 15.04c-.37.55-.87.97-1.51 1.27-.64.3-1.36.45-2.17.45h-6.04v-7.62h6.34c.77 0 1.45.17 2.05.52.59.35 1.06.82 1.39 1.41.33.59.5 1.25.5 1.99s-.18 1.43-.55 1.98M203.86 21.55h2.71v16.42h-2.71zM203.86 15.85h2.71v2.8h-2.71zM211.43 15.62h2.71v22.35h-2.71zM219 21.55h2.71v16.42H219zM219 15.85h2.71v2.8H219zM236.72 29.65c-.84-.43-1.98-.83-3.43-1.19-1.29-.32-2.27-.61-2.94-.87-.67-.25-1.14-.52-1.38-.8-.25-.28-.37-.62-.37-1.03 0-.7.33-1.26 1-1.67.66-.42 1.53-.61 2.59-.58 1.11.03 2.03.3 2.75.81.72.51 1.14 1.2 1.28 2.08l2.77-.5c-.11-.96-.47-1.81-1.07-2.53-.6-.73-1.4-1.29-2.38-1.68-.98-.4-2.1-.59-3.34-.59s-2.36.2-3.31.6c-.95.4-1.68.96-2.21 1.68s-.79 1.56-.79 2.52c0 .79.18 1.46.53 2.01.35.55.95 1.03 1.78 1.44.83.41 1.97.81 3.42 1.19 1.34.36 2.34.67 3 .93.66.25 1.1.52 1.32.81.21.29.32.66.32 1.12 0 .8-.32 1.43-.97 1.9-.64.47-1.52.7-2.64.7-1.19 0-2.18-.26-2.98-.78-.8-.52-1.31-1.23-1.53-2.12l-2.77.44c.28 1.54 1.05 2.74 2.3 3.6 1.09.74 2.46 1.15 4.08 1.24l-.84 2.35c.52.15.98.33 1.39.52.41.2.62.52.62.97 0 .26-.1.51-.3.73-.2.22-.48.33-.84.33-.28 0-.65-.08-1.11-.24l-.65 1.75c.29.14.61.26.93.36.33.1.68.14 1.06.14.81 0 1.51-.28 2.1-.85.59-.57.88-1.28.88-2.14 0-.66-.17-1.21-.5-1.65-.33-.44-.78-.79-1.34-1.04l.45-1.25c1.52-.14 2.76-.56 3.7-1.29 1.17-.91 1.75-2.15 1.75-3.73 0-.85-.18-1.57-.53-2.15-.36-.58-.95-1.09-1.79-1.52M242.7 21.55h2.71v16.42h-2.71zM242.7 15.85h2.71v2.8h-2.71zM270.85 22.69c-.98-1.04-2.33-1.57-4.04-1.57-1.09 0-2.08.24-2.95.73-.85.48-1.52 1.14-2.02 1.99-.45-.87-1.08-1.54-1.9-2.01-.82-.47-1.78-.71-2.89-.71s-2.09.24-2.97.73c-.68.38-1.24.87-1.7 1.46v-1.76h-2.42v16.42h2.72V27.54c0-1.2.33-2.16.99-2.9.66-.73 1.52-1.1 2.58-1.1s1.94.36 2.58 1.08c.65.72.97 1.7.97 2.95l-.02 10.4h2.69l.02-10.43c0-.92.17-1.68.52-2.26.34-.59.79-1.02 1.34-1.31.55-.28 1.12-.43 1.73-.43 1.04 0 1.89.35 2.55 1.04.65.69.98 1.65.98 2.88l-.02 10.51h2.71l.02-11.1c0-1.74-.49-3.14-1.47-4.18"/><path class="cls-2" d="M44.39 39.1c.38-.46 1.1 0 .84.54 0 .02-.02.03-.03.05-.16.3-.33.6-.5.9-.16.3-.36.59-.54.88-.19.29-.37.59-.58.86l-.62.83c-.45.53-.89 1.07-1.39 1.56-.47.52-1.01.97-1.53 1.44l-.82.66-.21.17-.21.15-.43.3-.44.31c-.07.05-.15.1-.22.15l-.23.14c-.3.19-.6.38-.91.55l-.95.5-.24.12c-.08.04-.16.07-.24.11l-.49.22-.49.22c-.08.04-.16.07-.25.1l-.25.1c-.33.13-.67.26-1.01.38-1.36.46-2.77.8-4.21 1.01l-.54.07-.27.04-.27.02-.54.04-.27.02h-.14l-.14.01-1.09.03h-.01l-1.09-.03c-1.46-.07-2.91-.27-4.34-.59-1.43-.32-2.84-.77-4.2-1.34-.34-.15-.68-.29-1.01-.45l-.99-.49-.97-.54c-.32-.19-.63-.39-.94-.58a25.69 25.69 0 0 1-6.52-6.05c-.22-.3-.44-.6-.66-.91l-.62-.95c-.2-.32-.38-.65-.57-.97-.1-.16-.18-.33-.27-.5l-.26-.5c-.68-1.35-1.24-2.76-1.67-4.22l-.15-.55c-.05-.18-.11-.36-.15-.55l-.25-1.11c-.07-.37-.13-.75-.2-1.12-.04-.19-.05-.38-.08-.57l-.07-.57C0 27.47-.03 25.94.08 24.41c.21-3.06.98-6.08 2.26-8.89 1.27-2.8 3.03-5.4 5.2-7.63 2.18-2.22 4.76-4.07 7.61-5.41 1.42-.68 2.91-1.21 4.43-1.61 1.52-.4 3.08-.68 4.66-.81l1.19-.07h1.19c.2-.02.4 0 .59 0l.59.02h.3l.3.04.59.05a27.302 27.302 0 0 1 9.12 2.58c1.43.7 2.8 1.52 4.09 2.45 1.43 1.03 2.8 2.16 3.98 3.47 1.21 1.33 2.33 2.77 2.18 4.66a4.645 4.645 0 0 1-4.99 4.26c-.89-.07-1.73-.4-2.44-.93-.79-.59-1.39-1.39-2.01-2.14-1.32-1.59-3.02-2.84-4.83-3.81-.95-.51-1.94-.93-2.96-1.26a18.29 18.29 0 0 0-9.6-.52c-1.06.23-2.11.54-3.12.96-2.02.83-3.91 2.02-5.55 3.52a19.52 19.52 0 0 0-4.07 5.29c-.52 1-.96 2.04-1.31 3.11a18.45 18.45 0 0 0-.74 3.31c-.15 1.12-.2 2.26-.15 3.4l.02.43c0 .14.01.29.03.43l.09.85.13.85c.02.14.06.28.09.42l.09.42c.51 2.24 1.41 4.4 2.69 6.35 1.27 1.95 2.91 3.69 4.8 5.11 1.89 1.43 4.05 2.52 6.34 3.22 2.29.7 4.72 1 7.15.86h.23c.08-.01.15-.02.23-.02l.46-.04.46-.04.45-.06c.61-.07 1.2-.21 1.81-.32.3-.07.6-.15.89-.23l.23-.06.22-.06.44-.14.44-.14c.07-.02.15-.04.22-.07l.22-.08.87-.33c.29-.12.57-.25.85-.38l.22-.09c.07-.03.14-.06.21-.1l.42-.21c.57-.27 1.1-.6 1.65-.91l.79-.51c.27-.17.52-.36.78-.55.52-.36 1-.78 1.51-1.18.96-.85 1.88-1.77 2.73-2.77 0-.01.02-.02.03-.03"/><path class="cls-1" d="M31.46 21.59c-.29-.23-.02-.68.32-.54 2.77 1.18 7.91 2.76 13.75 1.57 6.88-1.41 17.14-14.87 21.24-20.6.22-.31.7-.03.55.31-2.94 6.57-10.61 22.29-17.78 24.79-6.97 2.43-14.64-2.74-18.09-5.53"/><path class="cls-1" d="M35.18 28.02c-.08-.1-.12-.22-.06-.32.11-.21.42-.14.64-.04 3.46 1.64 7.46 2.92 11.32 2.99 4.39.07 7.93-2.37 11.37-4.83 3.49-2.5 6.76-5.32 9.84-8.3.22-.21.57.07.39.33-2.51 3.77-5.22 7.44-8.41 10.67-2.87 2.89-6.43 6.33-10.75 6.43-1.55.04-3.01-.38-4.44-.95-3.5-1.39-6.63-3.56-9.69-5.76a.669.669 0 0 1-.21-.2"/></g></svg>