<svg id="Layer_2" data-name="Layer 2" xmlns="http://www.w3.org/2000/svg" viewBox="0 0 75.89 75.8"><defs><style>.cls-1{fill:#898989}</style></defs><g id="Layer_1-2" data-name="Layer 1"><path class="cls-1" d="M44.77 75.8c-1.14-.34-1.96-1.08-2.58-2.08-2.06-3.36-4.74-6.08-8.1-8.15-.38-.23-.72-.52-1.07-.79-1.38-1.07-1.77-2.82-.98-4.3.8-1.49 2.56-2.2 4.18-1.6 1.29.48 2.55 1.06 3.8 1.63.42.19.68.18 1.01-.19 2.57-2.8 5.16-5.58 7.74-8.38.26-.28.43-.63.62-.91-.3-.09-.54-.12-.74-.23-4.73-2.5-9.46-4.99-14.19-7.5-1.86-.99-2.54-3.02-1.64-4.77.73-1.42 2.11-2.03 3.81-1.67 3.28.69 6.56 1.39 9.84 2.09 3.74.79 7.48 1.57 11.21 2.39.47.1.73-.03 1.03-.34 2.38-2.54 4.84-5.01 7.13-7.63 1.83-2.1 5.84-2.27 7.78-1.01 1.18.76 1.79 1.87 2.11 3.18.04.19.11.37.17.55v2.07c-.3 1.9-1.51 3.19-2.87 4.42-2.14 1.94-4.2 3.97-6.33 5.91-.56.51-.71.97-.53 1.72 1.62 6.99 3.21 13.98 4.79 20.98.47 2.07-.77 3.85-2.84 4.13-1.43.2-2.82-.56-3.59-1.98-2.62-4.83-5.22-9.68-7.86-14.5-.27-.48-.75-.85-1.13-1.27l-.14.14c.15.19.31.37.51.61-.18.16-.35.3-.51.45-2.69 2.5-5.37 5.02-8.09 7.5-.47.43-.52.76-.26 1.31.54 1.13 1.05 2.29 1.51 3.46.76 1.94-.17 3.9-2.12 4.61-.11.04-.21.1-.32.16h-1.33Zm-9.74-13.98-.06.13c.18.16.35.34.54.47 3.77 2.61 7.03 5.72 9.44 9.67.1.17.35.25.53.38 0-.22.06-.46-.02-.65-.62-1.48-1.27-2.94-1.91-4.41-.48-1.12-.39-1.59.51-2.42 3.13-2.91 6.26-5.82 9.38-8.73 2.09-1.95 4.6-1.56 5.95.95 2.58 4.77 5.15 9.55 7.76 14.31.26.47.73.82 1.11 1.23-.11-.5-.37-.86-.47-1.27-1.6-6.97-3.17-13.95-4.79-20.91-.38-1.66 0-2.98 1.26-4.13 2.49-2.29 4.93-4.63 7.4-6.95 1.05-.99 1.38-2.36.82-3.7-.13-.31-.4-.64-.7-.8-1.17-.61-2.83-.29-3.73.66-2.39 2.54-4.78 5.06-7.16 7.61-.99 1.07-2.18 1.5-3.61 1.2-3.76-.79-7.53-1.59-11.29-2.39-3.26-.69-6.51-1.38-9.77-2.06-.21-.04-.46.07-.7.11.02.07.03.15.05.22.11.05.22.09.33.14 4.86 2.57 9.74 5.11 14.58 7.72 2.17 1.17 2.54 3.75.85 5.59-2.99 3.26-6.01 6.49-9.02 9.72-.72.77-1.22.87-2.18.46-1.45-.62-2.89-1.26-4.34-1.89-.25-.11-.52-.19-.78-.28"/><path class="cls-1" d="M60.07 19.09c-.65.32-1.16.57-1.66.82-8.62 4.31-17.25 8.62-25.86 12.95-.66.33-1.25.31-1.89-.02-4.14-2.09-8.28-4.16-12.43-6.24-.19-.1-.39-.18-.7-.31v8.86c0 1.17-.57 1.84-1.54 1.86-1 .01-1.6-.68-1.6-1.88v-9.86c0-.37-.04-.62-.44-.82-3.45-1.7-6.88-3.43-10.32-5.15-.11-.05-.22-.08-.46-.17v.85c0 8.03 0 16.06-.01 24.08 0 .57.16.87.67 1.15 7.9 4.37 15.79 8.76 23.68 13.15.13.07.26.14.38.22.85.54 1.12 1.44.65 2.22-.45.75-1.34.98-2.19.53-1.11-.59-2.2-1.22-3.3-1.83-7.29-4.05-14.57-8.11-21.87-12.15C.37 46.91 0 46.33 0 45.4c.02-9.56.02-19.12 0-28.68 0-.81.3-1.35 1.03-1.71 9.8-4.89 19.59-9.77 29.38-14.69.87-.44 1.58-.42 2.43.01 9.43 4.73 18.87 9.44 28.32 14.16.37.19.76.36 1.13.55.66.33.99.87.99 1.6 0 4.32-.01 8.65-.02 12.97 0 1.08-.48 1.75-1.3 1.88-1.09.18-1.88-.56-1.88-1.81-.01-2.69 0-5.39 0-8.08v-2.51m-40.54 4.6c.26.15.45.26.64.36 3.59 1.8 7.19 3.58 10.78 5.4.49.25.87.25 1.37 0 8.35-4.2 16.71-8.37 25.06-12.56.21-.1.4-.23.67-.39-.24-.13-.39-.22-.53-.3-3.68-1.84-7.37-3.67-11.04-5.54-.43-.22-.73-.11-1.09.07-6.55 3.28-13.1 6.55-19.64 9.83-2.05 1.02-4.09 2.05-6.21 3.11M42.46 8.66c-3.62-1.81-7.08-3.55-10.55-5.25-.2-.1-.57 0-.81.12-8.47 4.22-16.91 8.45-25.35 12.68-.16.08-.3.19-.5.32.16.1.23.16.32.2 3.31 1.66 6.61 3.32 9.93 4.95.28.14.77.07 1.08-.08 6.07-3.01 12.13-6.05 18.19-9.08 2.51-1.26 5.02-2.51 7.67-3.84"/></g></svg>