<svg id="Layer_2" data-name="Layer 2" xmlns="http://www.w3.org/2000/svg" viewBox="0 0 89.35 89.3">
    <defs>
        <style>.cls-1{fill:#898989}</style>
    </defs>
    <g id="Layer_1-2" data-name="Layer 1">
        <path class="cls-1"
              d="M37.24 22.33H10.43v23.18c0 1.65-.45 2.09-2.1 2.09H1.82c-1.28 0-1.81-.54-1.81-1.81C0 35.59.01 25.38 0 15.18c0-.84.35-1.38 1.05-1.81C8.31 9.03 15.57 4.68 22.81.32c.73-.44 1.36-.41 2.08.02 7.25 4.36 14.5 8.71 21.76 13.06.72.43 1.01 1 1.01 1.83-.01 10.17 0 20.35-.01 30.52 0 1.34-.53 1.86-1.86 1.86h-6.61c-1.46 0-1.95-.49-1.95-1.95V22.33Zm7.41 22.25c.01-.21.03-.36.03-.51 0-9.24 0-18.49.02-27.73 0-.58-.27-.82-.68-1.07C37.56 11.4 31.1 7.54 24.65 3.64c-.58-.35-.99-.37-1.59-.01-6.42 3.88-12.85 7.74-19.29 11.58-.57.34-.8.69-.79 1.38.03 9.03.02 18.05.02 27.08 0 .3.03.6.04.9h4.41V21.43c0-1.66.44-2.11 2.08-2.11H38.1c1.69 0 2.11.44 2.11 2.17v23.09h4.43ZM86.4 56.54v-8.89h2.9c.02.27.05.53.05.8v9.12c0 1.45-.5 1.95-1.96 1.95H68.56v8.83c.63-.82 1.16-1.5 1.75-2.27.78.59 1.54 1.16 2.37 1.78-1.55 2.06-3.02 4.08-4.58 6.04-.6.76-1.64.7-2.26-.1-1.5-1.93-2.95-3.9-4.47-5.93.8-.6 1.55-1.17 2.36-1.79.57.74 1.09 1.42 1.72 2.25v-8.76H43.27v8.76c.63-.81 1.16-1.5 1.73-2.24.79.59 1.53 1.14 2.37 1.76-.87 1.16-1.71 2.29-2.56 3.43-.61.82-1.21 1.65-1.85 2.45-.7.87-1.73.95-2.39.11-1.52-1.95-2.98-3.95-4.51-5.98.8-.6 1.54-1.16 2.36-1.78.56.73 1.09 1.42 1.74 2.26v-8.76H16.45v8.75c.62-.8 1.15-1.48 1.75-2.25.78.58 1.53 1.15 2.36 1.78-1.54 2.05-3.02 4.07-4.57 6.04-.6.77-1.64.71-2.26-.08-1.5-1.93-2.95-3.9-4.48-5.94.79-.6 1.55-1.17 2.36-1.78.56.73 1.09 1.41 1.73 2.25.03-.41.06-.66.07-.91V58.6c0-1.58.46-2.04 2.05-2.04H86.4Zm-13.43-26.8c1.88 0 3.67.04 5.46-.01.99-.03 1.67.31 2.04 1.25.12.32.31.61.46.91q2.58 5.17 2.47 10.96c-.02 1.22-.55 1.75-1.75 1.78-.19 0-.37.01-.56 0-1.35-.08-2.39 0-3.39 1.41-1.77 2.5-5.58 1.99-7.08-.72-.31-.56-.63-.71-1.21-.7-2.14.03-4.28.02-6.42 0-.48 0-.76.11-1 .58-.81 1.56-2.15 2.39-3.91 2.39-1.76 0-3.09-.84-3.91-2.39-.25-.47-.52-.62-1-.58-.34.03-.68.02-1.02 0-.93-.06-1.5-.6-1.51-1.55-.02-5.42-.02-10.85 0-16.27 0-1.03.64-1.53 1.8-1.53h15.07c1.24 0 2.48-.01 3.72 0 1.16.01 1.71.55 1.73 1.7.02.89 0 1.78 0 2.76M53.63 41.55c.06.02.11.05.17.07.08-.12.17-.22.23-.35.84-1.62 2.15-2.57 3.99-2.59 1.84-.02 3.16.89 4.06 2.49.13.24.56.44.85.45 1.61.04 3.22.02 4.84.02h2.16V28.3h-16.3v13.24Zm19.39-8.84v6.16c2.14-.52 3.98-.04 5.07 1.82.63 1.09 1.34.99 2.32.9 0-.98.02-1.91 0-2.83-.02-.55 0-1.14-.21-1.62-.58-1.33-1.26-2.62-1.94-3.9-.12-.23-.42-.5-.65-.51-1.51-.04-3.02-.02-4.58-.02M59.56 43.14c0-.81-.67-1.48-1.48-1.48-.81 0-1.48.67-1.48 1.48 0 .81.67 1.48 1.48 1.49.8 0 1.48-.67 1.48-1.48m14.94 1.48c.8-.03 1.46-.72 1.44-1.53-.03-.81-.72-1.46-1.53-1.44-.81.02-1.46.72-1.44 1.53.03.81.72 1.46 1.53 1.44"/>
        <path class="cls-1"
              d="M17.88 35.61v-6.9c0-1.46.49-1.95 1.95-1.95h8.09c1.34 0 1.86.52 1.86 1.85v7.08h2.62c1.29.01 1.84.53 1.84 1.78.01 2.79.01 5.58 0 8.37 0 1.21-.55 1.76-1.77 1.76h-17.3c-1.22 0-1.77-.54-1.77-1.76-.01-2.79-.01-5.58 0-8.37 0-1.26.55-1.77 1.84-1.78.77 0 1.55 0 2.32-.01.06 0 .12-.03.3-.08m3.04.01h5.84v-5.84H20.9v5.84Zm-4.49 8.94h5.84v-5.84h-5.84v5.84Zm8.94 0h5.84v-5.84h-5.84v5.84ZM14.86 77.39c3.29-.02 5.98 2.65 5.99 5.94 0 3.29-2.68 5.97-5.96 5.97-3.24 0-5.92-2.66-5.94-5.89-.02-3.29 2.64-6 5.92-6.01m3.01 5.92c-.02-1.61-1.37-2.95-2.98-2.94-1.62 0-2.96 1.34-2.97 2.96 0 1.65 1.38 3.02 3.03 2.99 1.61-.03 2.94-1.39 2.92-3.01m29.78.05c-.01 3.28-2.72 5.95-6.01 5.92-3.28-.02-5.93-2.74-5.9-6.03.03-3.24 2.71-5.88 5.96-5.88 3.29 0 5.96 2.69 5.94 5.98m-2.98-.04c0-1.61-1.34-2.96-2.96-2.97-1.62 0-2.97 1.32-2.99 2.94-.02 1.65 1.35 3.03 3.01 3.01 1.61-.02 2.95-1.37 2.94-2.98m28.3.02c0 3.28-2.68 5.97-5.97 5.96-3.28 0-5.95-2.71-5.94-6 .02-3.24 2.68-5.9 5.92-5.91 3.29-.01 5.98 2.66 5.98 5.95m-2.98 0c0-1.61-1.35-2.96-2.97-2.96s-2.97 1.32-2.98 2.94c-.02 1.65 1.36 3.03 3.01 3.01 1.61-.02 2.95-1.38 2.94-2.99m16.47-41.63h2.85v2.87h-2.85z"/>
    </g>
</svg>
