<svg id="Layer_2" data-name="Layer 2" xmlns="http://www.w3.org/2000/svg" viewBox="0 0 72.49 72.51"><defs><style>.cls-1{fill:#898989}</style></defs><g id="Layer_1-2" data-name="Layer 1"><path class="cls-1" d="M0 37.45h7.17c-1.96-3.14-3.86-6.19-5.82-9.33h4.41V5.91h2.31v24.52H5.6c.16.3.26.49.37.66 1.17 1.88 2.34 3.76 3.52 5.64.58.92 1.35.94 1.92.03 1.3-2.06 2.58-4.12 3.94-6.29h-2.5V10.6h2.28v2.19c1.18-.56 2.25-1.07 3.32-1.58C26.11 7.53 33.77 3.86 41.42.17c.46-.22.82-.23 1.28 0 9.73 4.69 19.48 9.36 29.21 14.05.23.11.55.37.55.56.04 2.07.02 4.13.02 6.27h-2.31v51.47H0V37.45Zm15.22-16.34v7.02h4.34c-1.96 3.14-3.85 6.18-5.84 9.36h7.31v16.28h4.68V25.81h21.06v2.31h18.72v42.04h2.28V21.11H15.22Zm54.93-2.41c0-.75-.04-1.43.01-2.11.04-.5-.17-.72-.6-.93-8.95-4.28-17.9-8.58-26.85-12.89-.46-.22-.82-.24-1.28-.01-2.36 1.16-4.73 2.28-7.1 3.42-6.18 2.97-12.37 5.94-18.55 8.92-.24.11-.58.34-.59.53-.06 1.01-.03 2.03-.03 3.07h54.99Zm-25.8 51.5V42.18H39.7v4.6h-7.02v-4.59h-4.6v11.68h11.66v16.34h4.61ZM18.62 39.84h-4.67v4.59H6.93v-4.59H2.34v13.95h16.28V39.84ZM18.6 70.2V56.22h-4.65v4.6H6.94v-4.59H2.33V70.2h16.28Zm2.43-.02h16.29V56.22h-4.65v4.6h-7.02v-4.6h-4.63v13.96Zm7.05-42.05v11.61h16.28v-11.6h-4.68v4.58h-7v-4.59h-4.61Zm30.36 6.92h-7.05v-4.56h-4.61v11.58h16.29V30.48h-4.64v4.57Zm-7.03 14.06v-4.6h-4.62v11.6h16.28V44.54H58.4v4.58h-6.99Zm-4.6 9.44v11.61h16.28v-11.6h-4.68v4.58h-7v-4.59H46.8ZM35.09 30.36h2.24v-2.24h-2.24v2.24Zm18.71 2.35h2.26v-2.25H53.8v2.25ZM9.34 42.08h2.26v-2.24H9.34v2.24Zm25.72 2.33h2.28v-2.22h-2.28v2.22Zm18.77 2.35h2.22v-2.27h-2.22v2.27ZM9.33 58.47h2.25v-2.25H9.33v2.25Zm18.73 0h2.26v-2.25h-2.26v2.25Zm27.98.09h-2.22v2.27h2.22v-2.27Z"/><path class="cls-1" d="M12.85 5.89h2.25v2.25h-2.25z"/></g></svg>