<svg id="Layer_2" data-name="Layer 2" xmlns="http://www.w3.org/2000/svg" viewBox="0 0 99.74 65.96"><defs><style>.cls-1{fill:#898989}</style></defs><g id="Layer_1-2" data-name="Layer 1"><path class="cls-1" d="M0 53.95c.43-.82 1.11-1.07 2.02-1 1.35.11 2.49.65 3.54 1.46 2.17 1.66 3.29 1.65 5.47.02 2.76-2.07 5.54-2.05 8.31.06 2.03 1.54 3.26 1.54 5.32-.02 2.83-2.13 5.55-2.12 8.38.03 2 1.51 3.27 1.52 5.25 0 2.84-2.17 5.58-2.17 8.46 0 2 1.5 3.23 1.5 5.24-.02 2.86-2.16 5.6-2.15 8.47.04 1.94 1.48 3.21 1.48 5.16 0 2.94-2.21 5.62-2.21 8.54.01 1.9 1.44 3.21 1.45 5.09.03 3.04-2.29 5.64-2.27 8.7.04.33.25.68.52 1.05.7 1.64.79 3.01.26 3.56-1.45 1.39-4.28 2.75-8.58 4.11-12.88.28-.87.09-1.12-.85-1.13-1.49-.02-2.99 0-4.48 0-.32 0-.65 0-.97-.06-.82-.17-1.23-.7-1.18-1.53.06-.79.53-1.27 1.32-1.3 1.09-.04 2.19-.01 3.37-.01 0-1.04.06-1.94-.03-2.84-.03-.28-.41-.56-.69-.75-.16-.11-.44-.03-.67-.03H71.25c-1.31 0-1.36.06-1.36 1.38v2.22h1.16c4.12 0 8.25-.01 12.37.01.46 0 1.05.06 1.36.34.32.3.56.93.48 1.35-.08.41-.54.85-.94 1.08-.33.19-.82.13-1.24.13-4.68 0-9.35.03-14.03-.01-1.07 0-1.68.35-2.05 1.36-.59 1.58-1.27 3.12-1.93 4.67-.76 1.77-2.1 2.66-4.03 2.66H24.61c-2.05 0-3.43-1-4.14-2.93-.56-1.52-1.09-3.05-1.61-4.59-.25-.72-.66-1.16-1.48-1.16H3.94c-.12 0-.25.04-.45.08.8 2.56 1.6 5.09 2.39 7.62.08.25.17.49.22.75.16.82-.17 1.41-.94 1.7-.74.28-1.5-.09-1.82-.87-.2-.48-.32-.99-.48-1.48-.71-2.26-1.44-4.51-2.14-6.77-.71-2.3.5-3.95 2.92-3.96 3.31-.02 6.62 0 9.94 0h1.18v-14c0-2.06.84-2.88 2.9-2.89h8.09c.02-.38.05-.72.05-1.06 0-2.14-.01-4.29 0-6.43.02-1.88.88-2.76 2.74-2.77 2.82-.02 5.65-.01 8.47 0 1.87 0 2.74.88 2.75 2.75v17.23c2.71 0 16.85.09 19.18.09 2.11 0 2.97.86 2.97 2.94v12.33c.07.02.13.04.19.05.14-.27.3-.53.41-.8.65-1.55 1.21-3.16 1.98-4.65.44-.85 1.16-1.61 1.9-2.25.39-.34.59-.6.56-1.09-.03-.52 0-1.04 0-1.56 0-2.77.61-3.62 3.33-4.51v-3.72c0-1.23.03-2.47-.02-3.7-.01-.31-.31-.6-.47-.91-.27-.52-.75-1.04-.75-1.55.05-3.37 2.85-6.16 6.23-6.26 1.68-.05 3.36 0 5.09 0v-3.79h-3.24c-.84 0-1.46-.34-1.59-1.25-.14-.95.47-1.62 1.57-1.66 1.06-.04 2.13 0 3.26 0V5.69c-1.11-.17-2.62.28-2.74-1.53-.06-.97.57-1.3 2.77-1.54.1-1.1-.26-2.58 1.55-2.65.95-.04 1.25.55 1.49 2.67 1.08.16 2.67-.24 2.66 1.56-.01 1.76-1.56 1.33-2.68 1.46v1.78c1.04 0 2.03-.01 3.03 0 1.18.02 1.8.54 1.81 1.45 0 .92-.61 1.44-1.79 1.46-.94.02-1.88.02-2.82.03-.06 0-.12.05-.23.1v3.65c1.65 0 3.27-.03 4.88 0 3.52.07 6.41 2.88 6.38 6.28 0 .52-.47 1.04-.74 1.54-.12.23-.42.43-.42.65-.03 2.56-.02 5.12-.02 7.65 3.07 1.17 3.1 1.22 3.36 6.61.11.04.25.1.39.16 2.07.82 2.93 2.56 2.26 4.7-1.04 3.34-2.12 6.67-3.19 10.01-.12.36-.21.73-.34 1.16h1.26c.85 0 1.37.47 1.47 1.27.1.82-.34 1.52-1.14 1.54-1.46.05-2.45.88-3.54 1.65-2.24 1.59-5.15 1.47-7.46-.15-.82-.58-1.76-1.09-2.72-1.35-1.16-.32-2.11.39-2.98 1.11-1.54 1.29-3.33 1.85-5.26 1.37-1.12-.28-2.22-.88-3.18-1.54-1.94-1.34-3.14-1.4-5.02 0-3.08 2.31-5.69 2.29-8.77-.06-1.74-1.32-3.12-1.37-4.85.03-1.91 1.54-4 2.15-6.35 1.39-.81-.26-1.57-.76-2.27-1.27-2.06-1.51-3.26-1.57-5.24 0-1.6 1.27-3.37 1.93-5.34 1.44-1.15-.29-2.28-.9-3.27-1.58-1.87-1.28-3.12-1.34-4.95.04-3.06 2.31-5.71 2.3-8.78-.03-1.76-1.34-3.1-1.34-4.85-.02-3.14 2.37-5.72 2.34-8.87.02-.64-.47-1.52-.62-2.26-.97-.56-.26-1.07-.62-1.6-.93v-.97Zm73.28-23.59h17.24v-8.11H73.28v8.11ZM36.81 12.71c-2.55 0-5.04-.02-7.52.03-.18 0-.5.44-.52.68-.06 1.13-.02 2.27-.03 3.41v3.14h8.07v-7.26Zm14.14 26.9h8.01v-6.77h-8.01v6.77Zm-11.08 0h8.01v-6.78h-8.01v6.78Zm-11.06 0h8v-6.78h-8v6.78Zm-11.06-9.84h8.01v-6.78h-8.01v6.78Zm11.06 0h8V23h-8v6.77Zm-3.05 3.08h-8v4.05c1.64.2 2.85.96 3.58 2.41.08.17.32.35.49.36 1.29.03 2.57.02 3.92.02v-6.83Zm65.76-13.64c-.69-1.26-1.59-1.91-2.82-2.1-.19-.03-.39-.03-.58-.03-4.15 0-8.31-.01-12.46 0-1.63 0-2.86.86-3.18 2.12h19.04ZM47.9 42.67h-8.04v2.88h8.04v-2.88Zm11.1-.01h-8.08v2.86H59v-2.86Zm-30.17 2.86h7.98v-2.88h-7.98v2.88Zm-3.07-.02v-2.82h-3.11c.73 2.87.98 3.09 3.11 2.82M0 61.16c.8-1.08 1.93-1.03 2.98-.66 1.02.36 1.99.92 2.88 1.54 1.77 1.25 3.13 1.3 4.87 0 3.16-2.38 5.7-2.38 8.85 0 1.7 1.28 3.09 1.3 4.78.04 3.29-2.45 5.76-2.44 9.01.03 1.56 1.19 3.08 1.26 4.61 0 1.92-1.58 4.02-2.24 6.42-1.51.81.25 1.58.74 2.28 1.25 2.13 1.56 3.3 1.62 5.4-.04 1.86-1.47 3.91-1.87 6.12-1.18.87.27 1.66.86 2.42 1.41 1.75 1.28 3.13 1.31 4.87 0 3.16-2.38 5.7-2.38 8.85 0 1.73 1.31 3.09 1.3 4.86-.02 3.16-2.37 5.72-2.36 8.85.03 1.67 1.28 3.11 1.31 4.77.01 1.26-.98 2.57-1.75 4.23-1.74.98 0 1.65.52 1.71 1.35.05.78-.54 1.31-1.43 1.56-.91.26-1.86.57-2.61 1.11-2.93 2.11-5.61 2.16-8.48-.01-2-1.51-3.25-1.51-5.25 0-2.89 2.18-5.56 2.17-8.46 0-2-1.51-3.23-1.5-5.25.02-2.83 2.14-5.56 2.15-8.39.03-2.08-1.56-3.29-1.57-5.32-.01-2.78 2.13-5.57 2.13-8.39 0-2.03-1.54-3.26-1.55-5.24-.04-2.87 2.18-5.6 2.19-8.46.03-2.01-1.52-3.25-1.52-5.24-.02-2.88 2.18-5.57 2.18-8.46 0-2-1.51-3.24-1.5-5.24.02-2.83 2.15-5.58 2.17-8.38.02-.82-.62-1.64-1.08-2.71-1.2-.5-.06-.96-.54-1.43-.83v-1.17Z"/><path class="cls-1" d="M78.35 26.35c0 .39.02.78 0 1.16-.06.84-.53 1.31-1.36 1.36-.78.05-1.38-.36-1.46-1.12-.11-.96-.12-1.94 0-2.9.1-.81.72-1.21 1.55-1.12.78.09 1.21.57 1.27 1.35.03.42 0 .84 0 1.26M80.26 26.24c0-.39-.03-.78 0-1.16.07-.78.5-1.26 1.28-1.34.83-.08 1.44.34 1.55 1.14.12.92.12 1.88.02 2.8-.09.8-.67 1.26-1.51 1.2-.82-.06-1.29-.54-1.34-1.38-.03-.42 0-.84 0-1.26M85.15 26.21c0-.39-.04-.78 0-1.16.1-.81.57-1.3 1.41-1.32.84-.02 1.37.46 1.46 1.26.09.87.09 1.75 0 2.62-.08.8-.62 1.27-1.45 1.28-.79.01-1.36-.56-1.42-1.41-.03-.42 0-.84 0-1.26Z"/></g></svg>