<svg id="Layer_2" data-name="Layer 2" xmlns="http://www.w3.org/2000/svg" viewBox="0 0 72.01 72.04"><defs><style>.cls-1{fill:#000000}</style></defs><g id="Layer_1-2" data-name="Layer 1"><path class="cls-1" d="M72.01 71.06s-.09.05-.11.08c-.51 1.17-2.02 1.24-2.71-.13-1.8-3.55-3.66-7.07-5.49-10.6-1.81-3.49-3.63-6.98-5.44-10.47-.12-.23-.24-.45-.39-.74-.59.5-1.18.93-1.68 1.44-.14.14-.1.55-.01.79 1.44 3.81 2.91 7.61 4.36 11.41.89 2.32 1.78 4.63 2.65 6.95.13.34.23.74.18 1.08-.09.67-.56 1.08-1.24 1.15-.73.07-1.21-.33-1.46-.98-.64-1.63-1.26-3.28-1.89-4.92-.57-1.49-1.14-2.97-1.73-4.49h-.71c-13.55 0-27.11 0-40.66-.01-.58 0-.88.15-1.05.71-.21.69-.5 1.35-.78 2.12h33.97c.28 0 .57-.01.84.03.73.11 1.26.71 1.25 1.39 0 .69-.53 1.27-1.27 1.37-.25.04-.51.02-.77.02-11.44 0-22.89 0-34.33-.01-.57 0-.88.12-1.06.71-.31.98-.72 1.93-1.09 2.89-.38.98-1.09 1.39-1.88 1.1-.83-.31-1.13-1.1-.74-2.1 2.34-6.12 4.68-12.24 7.05-18.35.21-.54.15-.84-.32-1.16-.48-.33-.9-.73-1.39-1.14-.98 1.89-1.93 3.72-2.88 5.54-2.77 5.34-5.55 10.68-8.32 16.02-.14.27-.28.55-.47.78-.41.5-1.1.64-1.65.36-.62-.32-.92-.99-.71-1.65.1-.31.24-.61.4-.9 3.68-7.09 7.36-14.17 11.04-21.26.12-.23.23-.46.38-.75-.62-.53-1.23-1.06-1.86-1.57-.53-.43-.77-.96-.77-1.65.01-5.06 0-10.13 0-15.2 0-.14 0-.28.01-.42.09-.78.67-1.33 1.39-1.33.72 0 1.31.55 1.39 1.33.04.42.02.84.02 1.27v13.44c0 .44.13.72.47 1.01 3.34 2.77 6.66 5.56 9.98 8.35.42.35.83.52 1.39.5 1.28-.04 2.57-.01 3.96-.01 0-.66-.03-1.29 0-1.91.05-1 .67-1.58 1.56-1.49.71.07 1.2.59 1.23 1.38.03.65 0 1.3 0 1.99h4.3c0-.61-.01-1.21 0-1.81.03-.97.53-1.54 1.34-1.57.84-.03 1.41.55 1.46 1.54.03.6 0 1.21 0 1.84h4.27c0-.63-.01-1.23 0-1.83.03-.94.56-1.53 1.38-1.55.85-.02 1.41.58 1.43 1.56.02.58 0 1.17 0 1.85 1.31 0 2.59.01 3.87-.01.18 0 .37-.18.52-.31 3.44-2.87 6.88-5.74 10.3-8.63.2-.17.35-.5.35-.76.02-10.97.03-21.95 0-32.92a7.573 7.573 0 0 0-7.57-7.58c-10.88-.03-21.76-.03-32.64 0-4.23.01-7.55 3.38-7.61 7.62-.02 1.52 0 3.05 0 4.57 0 1.06-.58 1.74-1.44 1.71-.84-.02-1.38-.68-1.37-1.71.02-2.01-.08-4.05.15-6.04.53-4.53 4.2-8.18 8.68-8.86.15-.02.3-.09.46-.14h34.89c.08.04.16.1.25.11 4.9.62 9.09 4.97 9.06 10.75-.06 11.02-.02 22.04 0 33.05 0 .85-.27 1.48-.94 1.99-.59.45-1.13.95-1.7 1.43.78 1.5 1.52 2.94 2.27 4.37 3.22 6.21 6.44 12.43 9.65 18.64v.7Zm-56-12.26h39.96c-.78-2.03-1.54-4.02-2.33-6.07-1.04.86-2 1.64-2.93 2.46-.54.48-1.12.69-1.85.69-8.58-.02-17.16-.02-25.74 0-.73 0-1.31-.21-1.85-.69-.95-.83-1.93-1.62-2.94-2.46-.79 2.06-1.55 4.05-2.32 6.07"/><path class="cls-1" d="M35.94 30.96H20.75c-3.03 0-4.74-1.71-4.74-4.75V14.82c0-2.94 1.73-4.68 4.67-4.68h30.59c2.98 0 4.7 1.73 4.7 4.72v11.46c0 2.9-1.74 4.64-4.64 4.65h-15.4m-1.38-18.01H20.73c-1.43 0-1.91.47-1.91 1.89v11.39c0 1.46.47 1.92 1.95 1.92h13.07c.23 0 .45-.02.71-.03V12.94Zm2.88 15.2H51.29c1.38 0 1.86-.49 1.86-1.87V14.9c0-1.48-.46-1.94-1.92-1.94H37.44v15.2ZM55.97 39.39c0 2.61-2.18 4.79-4.79 4.79s-4.79-2.2-4.77-4.8c.02-2.59 2.16-4.73 4.75-4.75 2.6-.02 4.8 2.16 4.8 4.77m-2.81 0c0-1.07-.9-1.96-1.97-1.96-1.07 0-1.96.9-1.96 1.97 0 1.07.9 1.96 1.97 1.96 1.07 0 1.96-.9 1.96-1.97M15.99 39.42c-.01-2.63 2.14-4.8 4.76-4.8 2.61 0 4.8 2.2 4.78 4.8-.02 2.6-2.15 4.73-4.74 4.76-2.61.03-4.79-2.13-4.8-4.76m6.73 0c0-1.07-.88-1.97-1.95-1.98-1.08 0-1.96.87-1.96 1.95 0 1.09.86 1.97 1.94 1.98 1.07 0 1.97-.88 1.98-1.95M36.33 37.44h-6.54c-.26 0-.52 0-.77-.04-.65-.12-1.13-.7-1.14-1.33-.01-.61.41-1.17 1.04-1.34.27-.07.55-.09.83-.09h13.23c.23 0 .47 0 .7.05.73.15 1.22.76 1.18 1.44-.05.7-.59 1.25-1.34 1.3-.58.04-1.17.02-1.76.02h-5.42M36.38 44.18c-2.3 0-4.6.01-6.89 0-1.17 0-1.87-.89-1.52-1.88.22-.61.77-.93 1.65-.93H43.2c1.01.01 1.67.6 1.65 1.44-.02.81-.66 1.37-1.64 1.37-2.27.01-4.55 0-6.82 0M10.7 20.33c.75.02 1.38.69 1.36 1.42-.02.75-.67 1.36-1.43 1.35-.75-.02-1.38-.67-1.36-1.41.02-.75.69-1.38 1.43-1.36M54.28 67.25c-.73 0-1.39-.68-1.39-1.4 0-.73.67-1.39 1.4-1.39.73 0 1.39.67 1.39 1.4 0 .73-.68 1.39-1.4 1.39"/></g></svg>