<svg id="Layer_2" data-name="Layer 2" xmlns="http://www.w3.org/2000/svg" viewBox="0 0 92.5 92.44"><defs><style>.cls-1{fill:#898989}</style></defs><g id="Layer_1-2" data-name="Layer 1"><path class="cls-1" d="M82.19 74.77c-.25 1.6-.42 3.1-.75 4.57-.18.81.1 1.16.76 1.52 1.61.87 3.18 1.82 4.78 2.71.73.41 1.06.98 1.03 1.82-.04 1.27 0 2.55-.01 3.82-.02 1.33-.8 1.93-2.07 1.58-2.18-.6-4.36-1.23-6.6-1.87-.31.64-.58 1.26-.91 1.85-1.27 2.22-3.34 2.23-4.62.03-.32-.56-.57-1.17-.9-1.85-1.15.32-2.31.63-3.46.95-1.11.31-2.2.65-3.32.94-1.05.28-1.89-.31-1.93-1.4-.05-1.46-.1-2.93.04-4.38.05-.51.52-1.14.98-1.43 1.63-1.03 3.32-1.95 5.01-2.88.5-.28.68-.55.56-1.18-.3-1.52-.49-3.06-.75-4.75-.37.15-.67.24-.96.38-2.31 1.14-4.61 2.3-6.93 3.44-1.47.72-2.44.12-2.45-1.52-.01-1.71.02-3.42-.01-5.13-.01-.79.29-1.35.92-1.82 2.52-1.87 5.01-3.78 7.55-5.64.55-.4.71-.83.66-1.49-.08-.95-.18-1.94-.04-2.88.61-4.04 4.11-6.85 7.92-6.45 4.12.44 7.1 3.75 6.74 7.91-.16 1.85.38 2.88 1.86 3.85 2.15 1.42 4.14 3.08 6.22 4.61.69.5 1.01 1.1.99 1.97-.05 1.68 0 3.36-.02 5.04 0 1.71-.95 2.28-2.5 1.51-2.28-1.13-4.56-2.27-6.84-3.41-.27-.13-.55-.25-.95-.43m-6.24 14.3c.25-.33.34-.41.38-.51.25-.7.57-1.39.7-2.11.84-4.48 1.76-8.95 2.41-13.46.56-3.87.89-7.77 1.13-11.67.17-2.72-1.9-4.74-4.52-4.72-2.57.01-4.55 2.03-4.46 4.71.08 2.29.23 4.6.56 6.87.81 5.65 1.71 11.28 2.65 16.91.21 1.28.72 2.52 1.15 3.99m-6.78-21.51c-.21.06-.31.06-.38.11-1.94 1.45-3.88 2.9-5.81 4.36-.17.13-.34.39-.35.6-.04.8-.02 1.6-.02 2.46.22-.05.34-.06.45-.11 2.03-1 4.07-1.99 6.08-3.04.24-.12.44-.59.42-.88-.08-1.14-.24-2.28-.39-3.5m20.4 7.62c0-.76-.06-1.29.01-1.81.11-.85-.26-1.36-.93-1.84-1.59-1.13-3.14-2.34-4.71-3.51-.26-.2-.54-.36-.92-.62-.16 1.32-.32 2.48-.41 3.65-.02.25.12.66.31.76 2.14 1.11 4.3 2.18 6.65 3.35m-4.32 12.4c-.19-.81-.14-1.63-.5-1.88-1.22-.87-2.59-1.55-4.02-2.37-.21.88-.41 1.62-.53 2.37-.03.17.24.5.43.55 1.42.44 2.85.83 4.62 1.33M67.2 87.5c1.52-.43 3-.84 4.48-1.29.14-.04.33-.33.31-.46-.14-.78-.35-1.54-.56-2.42-1.2.69-2.24 1.39-3.36 1.89-1.1.48-1.1 1.24-.87 2.28M29.72 83.71v2.69c-1.25.03-2.27-.41-3.16-1.18-.4-.34-.77-.73-1.16-1.08-1.08-.95-2.08-.95-3.15.03-.96.88-1.86 1.83-3.22 2.12-1.7.37-3.2 0-4.51-1.14-.35-.3-.68-.64-1.02-.95-1.12-1.02-2.09-1.03-3.21-.02-.32.29-.63.6-.95.89-2.11 1.86-4.82 1.82-6.92-.07-.7-.63-1.46-1.19-2.38-1.93v-2.48c1.37-.01 2.45.52 3.4 1.38.48.44.92.97 1.48 1.27.47.25 1.08.23 1.87.37-.19-.6-.27-.91-.39-1.21-1.01-2.7-2.03-5.4-3.04-8.11-.62-1.65-.49-2 1.01-2.85.81-.46 1.61-.95 2.43-1.37.51-.26.68-.62.67-1.18-.03-2.3-.01-4.6-.01-6.9 0-1.93.35-2.29 2.25-2.33.19 0 .37-.02.73-.04v-2.28c0-.72-.03-1.43.02-2.14.06-.95.62-1.48 1.57-1.49 1.9-.02 3.79-.02 5.69 0 1.05.01 1.58.58 1.59 1.65.02 1.39 0 2.79 0 4.32h1.27c1.18.03 1.71.54 1.72 1.71.01 2.49.03 4.97-.01 7.46-.01.62.2.96.73 1.24.96.5 1.9 1.06 2.83 1.62.93.55 1.13 1.09.75 2.11-.76 2.07-1.54 4.13-2.31 6.19-.05.14-.09.29-.18.6 2.49-.07 3.55 2.34 5.6 3.11m-6.19-10c-2.82-1.61-5.58-3.2-8.38-4.74-.21-.12-.65.02-.92.17-1.44.79-2.87 1.61-4.3 2.43-1.23.71-2.46 1.42-3.74 2.15.29.75.55 1.43.83 2.17 2.34-1.34 4.56-2.58 6.75-3.87.76-.44 1.42-.45 2.17 0 1.3.78 2.64 1.51 3.96 2.27.9.52 1.81 1.03 2.8 1.6.29-.78.54-1.44.82-2.18m-4.2-11.07h-8.87v5.31c1.12-.64 2.15-1.15 3.1-1.78.92-.61 1.74-.61 2.66-.01.97.64 2.01 1.16 3.14 1.81v-5.33Zm-3.03 12.92c0 2.37.03 4.5-.02 6.64-.02.9.46 1.31 1.21 1.31.58 0 1.22-.2 1.71-.5 1.48-.9 1.76-2.55 2.31-4.02.05-.15-.11-.48-.26-.58-1.57-.93-3.16-1.83-4.95-2.86M9.06 81.4c1.38-.83 2.75-1.04 4.24-.62V75.6c-1.7.98-3.29 1.88-4.86 2.81-.16.09-.32.42-.28.57.25.79.57 1.56.9 2.42m7.23-24.74h-2.93v2.94h2.93v-2.94ZM49.16 62.61h-5.88c-.08.35-.16.67-.24.99-.48 2.03-2.28 3.46-4.32 3.45-2.05-.01-3.81-1.45-4.28-3.5-.12-.54-.27-.94-.86-1.26-.41-.22-.71-1-.73-1.55-.08-2.17-.04-4.35-.03-6.53 0-.51-.1-.82-.62-1.09-1.91-.97-2.73-2.85-2.2-4.82.51-1.89 2.21-3.08 4.29-3.02.28 0 .55.02.86.04.09-.19.18-.35.24-.51.75-1.94 2.21-3.02 4.25-3.04 4.38-.03 8.77-.04 13.15 0 1.99.02 3.45.99 4.17 2.88.21.54.43.69.99.66 2.24-.12 3.93 1.05 4.46 3.02.54 2-.3 3.76-2.28 4.9-.27.15-.5.6-.51.92-.04 2.18-.04 4.35-.02 6.53 0 .86-.27 1.46-1.09 1.88-.3.16-.46.72-.56 1.12a4.498 4.498 0 0 1-4.1 3.38c-1.89.1-3.77-1.18-4.37-3.01-.15-.44-.22-.9-.34-1.42m7.53-2.99c0-2.61.03-5.15-.02-7.69-.02-.81-.71-1.29-1.65-1.3-5.88 0-11.75-.01-17.63 0-1.08 0-1.64.59-1.65 1.7-.02 1.09 0 2.18 0 3.27v4.02h20.96ZM54.78 47.7c-.18-.71-.3-1.31-.48-1.9-.22-.74-.75-1.12-1.52-1.12-4.38 0-8.76-.03-13.14.04-.48 0-1.14.42-1.4.84-.36.6-.42 1.37-.62 2.14h17.16ZM37.29 62.64c.08 1.01.64 1.55 1.51 1.51.84-.04 1.35-.6 1.34-1.51h-2.85Zm17.88.05h-3c.25 1.06.77 1.53 1.58 1.46.84-.08 1.33-.54 1.42-1.46m-20.52-14.4c-.96-.2-1.49-.01-1.79.65-.22.51-.21.98.36 1.35.46-.65.89-1.26 1.43-2m23.49-.22c-.09.13-.17.27-.26.4l1.38 1.83.35-.09c-.05-.49.06-1.09-.18-1.45-.24-.35-.84-.47-1.28-.68M41.01 2.65c.49.89.91 1.65 1.39 2.53-2.17 1.22-4.29 2.4-6.53 3.65.32.22.5.37.7.48 3.01 1.68 6.02 3.36 9.05 5.02.28.15.76.27 1 .14 3.3-1.79 6.58-3.63 10.08-5.58-2.27-1.28-4.38-2.46-6.62-3.72.46-.83.9-1.63 1.39-2.5 1.26.7 2.45 1.36 3.64 2.01 1.63.9 3.25 1.83 4.89 2.71.77.41 1.14.98 1.13 1.86-.02 4.72-.02 9.45 0 14.18 0 .84-.34 1.41-1.07 1.81-4.27 2.36-8.53 4.72-12.79 7.11-.73.41-1.37.4-2.1 0-4.25-2.39-8.52-4.75-12.79-7.11-.73-.4-1.06-.97-1.06-1.81.01-4.73-.01-9.45.03-14.18 0-.52.26-1.29.65-1.52 2.93-1.73 5.93-3.36 9-5.07m-6.66 8.74c-.06.24-.1.32-.1.41 0 3.54-.03 7.08.02 10.62 0 .31.39.74.71.92 2.91 1.66 5.85 3.27 8.78 4.9.29.16.58.29 1.01.51v-7.6c0-1.3.4-2.87-.18-3.83-.6-1-2.16-1.44-3.31-2.09-2.27-1.27-4.55-2.52-6.92-3.83m13.4 17.29c.21-.08.36-.13.48-.2 3.15-1.74 6.3-3.48 9.43-5.26.28-.16.52-.68.52-1.03.04-3.32.03-6.64.02-9.97 0-.23-.04-.47-.07-.79-.21.09-.36.13-.48.2-3.15 1.74-6.3 3.48-9.43 5.26-.28.16-.52.67-.52 1.03-.04 3.32-.02 6.65-.02 9.97 0 .23.04.47.07.79"/><path class="cls-1" d="M0 89.14v-2.72c.86.28 1.66.45 2.38.79.54.27 1 .73 1.45 1.15 1.71 1.6 2.42 1.62 4.1.04.14-.13.27-.26.41-.38 2.17-1.98 4.95-1.97 7.12.03.34.32.66.66 1.02.95.87.72 1.84.73 2.72.02.36-.29.69-.63 1.03-.94 2.24-2.07 5-2.04 7.26.02.65.59 1.38 1.1 2.21 1.76v2.52c-1.2 0-2.18-.4-3.05-1.11-.22-.18-.41-.38-.62-.57-1.89-1.77-2.52-1.8-4.37-.01-1.45 1.4-3.12 2.15-5.08 1.51-.99-.32-1.91-1-2.71-1.7-1.67-1.45-2.37-1.5-3.97 0-2.73 2.57-5.29 2.56-8.01.02-.53-.49-1.17-.86-1.89-1.39M13.48 41.8h2.79v2.78h-2.79zM76.19 41.81h2.79v2.78h-2.79zM13.45 17.93h2.8v2.79h-2.8zM76.19 47.77h2.8v2.79h-2.8zM47.63 1.39c0 .77-.62 1.39-1.39 1.39h-.02c-.77 0-1.39-.62-1.39-1.39S45.45 0 46.22 0h.02c.77 0 1.39.62 1.39 1.39M19.45 17.92h2.82v2.77h-2.82zM25.42 17.92h2.79v2.78h-2.79zM64.22 17.92H67v2.78h-2.78zM70.17 17.94h2.82v2.77h-2.82zM76.19 17.88h2.77v2.81h-2.77zM13.47 23.89h2.8v2.78h-2.8zM76.16 23.89h2.81v2.77h-2.81zM13.47 29.86h2.77v2.81h-2.77zM13.47 47.78h2.79v2.78h-2.79zM76.17 29.88h2.79v2.78h-2.79zM13.46 35.85h2.79v2.78h-2.79zM44.82 35.82h2.78v2.79h-2.78zM76.17 35.83h2.82v2.77h-2.82zM37.32 53.77h2.82v2.77h-2.82zM52.27 53.76h2.81v2.76h-2.81z"/></g></svg>