<svg id="Layer_2" data-name="Layer 2" xmlns="http://www.w3.org/2000/svg" viewBox="0 0 103.21 68.78"><defs><style>.cls-1{fill:#000000}</style></defs><g id="Layer_1-2" data-name="Layer 1"><path class="cls-1" d="M.02 52.07c.02-1.27.61-2.24 1.74-2.81.49-.24 1.05-.33 1.63-.5 0-3.89-.04-7.76.04-11.63.02-.69.39-1.5.86-2.01 1.32-1.41 2.78-2.7 4.18-4.03 4.85-4.61 9.72-9.21 14.55-13.84 2.12-2.03 4.58-3.06 7.52-3.02 2.61.03 5.22.03 7.82 0 2.99-.03 5.99-.17 8.5 1.98.57-1.75.85-1.96 2.55-1.97h2.74c.07-.38.13-.65.18-.92 1.29-6.4 4.99-10.78 11.26-12.6 6.27-1.81 11.76-.11 16.24 4.65 1.35 1.44 2.93 2.1 4.86 2.13 4.59.08 8.09 2.13 10.46 6.05.32.54.67.71 1.26.7 1.27-.03 2.54-.05 3.8.02 1.73.1 2.92 1.38 2.96 3.11.03 1.27.03 2.54 0 3.8-.04 1.78-1.24 3.03-3.03 3.19l-.82.06v24.48c.24 0 .47 0 .71.02 1.9.09 3.12 1.37 3.15 3.27.02 1.09 0 2.19 0 3.28 0 2.32-1.25 3.56-3.6 3.58-1.8.01-3.59.06-5.39-.02-.99-.05-1.35.25-1.59 1.24-1.22 4.9-5.42 8.21-10.59 8.48-4.76.25-9.29-2.76-11.02-7.34-.28-.75-.48-1.53-.73-2.36h-1.17c-9.41 0-18.82.01-28.22-.03-.96 0-1.3.28-1.53 1.2-1.25 5.01-5.66 8.44-10.87 8.55-5 .1-9.56-3.25-11.03-8.1q-.49-1.62-2.21-1.62h-.84c-3.63 0-7.26.01-10.89 0-2.22-.01-3.46-1.29-3.48-3.49 0-1.17-.02-2.33 0-3.49m85.62-41.16c-1.05-.12-2.12-.09-3.15-.29-2.2-.41-3.89-1.66-5.4-3.27-5.04-5.33-13.4-5.25-18.31.12-1.71 1.86-2.74 4.05-3.14 6.67h35.89c-1.66-1.95-3.56-2.98-5.88-3.24m7.34 44.69h6.76v-3.23H92c.34 1.09.66 2.13.99 3.23m-11.3 9.78c4.38 0 7.98-3.63 7.98-8.02s-3.6-8.04-8.08-8.02c-4.41.01-8 3.61-7.99 8.01.01 4.45 3.63 8.05 8.09 8.04M50.5 55.57h19.79c.31-1.02.64-2.08.99-3.21H50.5v3.21Zm-.01-6.72c.38.02.75.06 1.13.06 7.12 0 14.23.01 21.35-.02.58 0 1.25-.22 1.71-.57 4.22-3.18 9.82-3.14 14.04.08.4.31 1 .42 1.53.47.74.12 5.64.05 5.64.05V24.44H50.48v24.41Zm-.03-27.94h49.3V17.7H50.45v3.21Zm-29.09 3.48c-.4 0-.92.04-1.17.29-3.12 2.9-6.2 5.83-9.44 8.92h29.42v-9.22H29.41c-2.68 0-5.36 0-8.03.01m7.05 41c4.43-.02 8.02-3.68 7.97-8.14-.05-4.4-3.66-7.93-8.09-7.91-4.41.02-7.99 3.62-7.98 8.02.01 4.45 3.64 8.05 8.09 8.03m-7.29-16.87c6.63-5.39 16.76-1.94 18.44 6.75.02.1.08.2.13.34h7.26c.02-.39.06-.75.06-1.12V23.84c0-3.93-2.28-6.2-6.24-6.23-3.28-.02-6.55.08-9.83-.03-2.84-.1-4.92 1.12-6.78 3.41H39.89c2.62 0 3.74 1.11 3.75 3.7v8.46c0 2.83-1.06 3.91-3.88 3.91H8.27q-1.5 0-1.5 1.51V48.9h2.94c3.38 0 6.76.01 10.15-.01.42 0 .94-.11 1.25-.36M3.43 55.58h13.56c.32-1.04.65-2.07.99-3.2H3.43v3.2Z"/><path class="cls-1" d="M81.58 52.73c-2.55.01-4.62 2.11-4.59 4.65.02 2.55 2.08 4.6 4.65 4.61 2.58.01 4.69-2.12 4.65-4.71-.04-2.55-2.11-4.56-4.7-4.55m0 5.87c-.76-.11-1.24-.52-1.19-1.31.05-.77.54-1.2 1.33-1.16.74.04 1.16.51 1.15 1.23-.01.78-.51 1.18-1.29 1.23M28.31 52.73c-2.55 0-4.63 2.09-4.61 4.63a4.652 4.652 0 0 0 4.63 4.63c2.58.02 4.69-2.1 4.66-4.69-.03-2.56-2.09-4.57-4.68-4.57m-.03 5.88c-.71-.11-1.21-.5-1.18-1.29.03-.72.47-1.17 1.21-1.18.79-.02 1.27.44 1.28 1.21.01.78-.49 1.19-1.3 1.26"/></g></svg>