<svg id="Layer_2" data-name="Layer 2" xmlns="http://www.w3.org/2000/svg" viewBox="0 0 86.15 55.96"><defs><style>.cls-1{fill:#898989}</style></defs><g id="Layer_1-2" data-name="Layer 1"><path class="cls-1" d="M0 47.83c.46.79 1.15 1.02 2.05 1 2.19-.04 4.37-.01 6.6-.01 1.33 4.61 4.21 7.36 9.16 7.08 4.35-.24 6.85-2.92 7.97-7.04h31.75c.53 2.43 1.77 4.4 3.88 5.76 1.48.96 3.1 1.4 4.86 1.35 4.07-.13 6.73-2.4 8.34-7.14h9.7c1.33 0 1.84-.51 1.84-1.83V1.82C86.15.47 85.67 0 84.31 0H30.55c-1.36 0-1.82.45-1.82 1.81v8.15c-.38.02-.71.05-1.03.05-4.23 0-8.47.02-12.7-.01-1.01 0-1.66.35-2.2 1.2C8.55 17.88 4.27 24.52 0 31.17v16.66Zm57.5-1.95H31.68v-2.84h24.28v-2.86H31.65V8.59h48.72V5.74h-48.7v-2.8h51.55v37.3h-7.07v2.85h7.06v2.81H74.6c-1.66-4.8-4.48-7.15-8.55-7.15s-6.85 2.3-8.56 7.13m-28.88.01h-2.83c-1.17-4.38-3.93-7.09-8.57-7.09-4.64 0-7.38 2.73-8.55 7.09H2.93v-2.88h4.2v-2.86H2.87v-7.42c0-1.14.04-1.18 1.19-1.18h19.77c1.62 0 2.03-.42 2.03-2.05V17.81c0-1.61-.42-2.03-2.06-2.03H13.31c.55-.86 1.03-1.55 1.43-2.27.27-.48.61-.63 1.15-.62 3.95.02 7.91.01 11.86.01h.87v33ZM5.03 28.64c2.13-3.31 4.16-6.48 6.23-9.64.14-.21.56-.32.85-.33 3.36-.02 6.72-.02 10.08-.01.24 0 .48.04.74.06v9.92H5.03Zm12.24 24.45a5.747 5.747 0 0 1-5.78-5.67c-.04-3.12 2.54-5.76 5.68-5.8 3.18-.04 5.8 2.55 5.81 5.73 0 3.16-2.54 5.72-5.7 5.74m48.78 0c-3.16 0-5.73-2.57-5.74-5.72 0-3.14 2.58-5.74 5.71-5.76 3.17-.02 5.81 2.62 5.78 5.78-.03 3.15-2.61 5.71-5.76 5.7"/><path class="cls-1" d="M15.83 47.39c0 .76.61 1.37 1.37 1.37h.04c.76 0 1.37-.61 1.37-1.37s-.62-1.37-1.37-1.37h-.04c-.76 0-1.37.61-1.37 1.37M67.44 47.39c0-.76-.62-1.38-1.38-1.38h-.01c-.76 0-1.38.62-1.38 1.38s.62 1.38 1.38 1.38h.01c.76 0 1.38-.62 1.38-1.38"/></g></svg>