<svg id="Layer_2" data-name="Layer 2" xmlns="http://www.w3.org/2000/svg" viewBox="0 0 13.65 8.26"><defs><style>.cls-1{fill:#f4f4f4}</style></defs><g id="Layer_1-2" data-name="Layer 1"><path d="M11.94 8.26H1.71C.76 8.26 0 7.49 0 6.55V1.71C0 .77.77 0 1.71 0h10.23c.95 0 1.71.77 1.71 1.71v4.84c0 .95-.77 1.71-1.71 1.71" style="fill:red"/><path class="cls-1" d="M8.25 2.88s-.02-.02-.03-.04c-.27-.33-.6-.55-1.01-.66a1.964 1.964 0 0 0-2.44 1.48c-.18.82.08 1.54.79 2.12.01 0 .02.02.04.02.66.39 1.34.44 2.02.1.25-.12.46-.31.62-.53l.02-.03c-.02.04-.05.09-.07.13-.2.35-.47.64-.82.86-.28.18-.58.3-.91.36-.49.08-.96.02-1.41-.2C4.44 6.2 4 5.7 3.74 5.04c-.02-.06-.04-.12-.06-.19-.2-.86-.07-1.64.44-2.32.33-.44.76-.75 1.29-.9.18-.05.37-.09.56-.09.68-.02 1.27.2 1.77.67a2.624 2.624 0 0 1 .51.67"/><path class="cls-1" d="M10.04 4.82a6.17 6.17 0 0 1-.75-.3c-.16.23-.32.46-.48.7l-.02.02v-.03c0-.28 0-.55.01-.83-.25-.08-.51-.17-.76-.25 0 0-.01 0-.03-.01.02 0 .03-.01.04-.01l.75-.24v-.86s.01.02.02.02c.15.22.3.45.45.67.25-.09.5-.17.75-.26 0 0 .02 0 .04-.01-.01.02-.02.02-.02.03-.16.22-.31.44-.47.66.15.22.31.44.47.66 0 0 .01.02.02.03"/></g></svg>