<?xml version="1.0" encoding="UTF-8"?>
<svg id="Layer_2" data-name="Layer 2" fill="#fff" xmlns="http://www.w3.org/2000/svg" viewBox="0 0 464.66 312.28">
    <path
        d="M251.45,117.68c-1.63-1.32-.08-3.9,1.85-3.08,15.87,6.78,45.25,15.81,78.68,8.97,39.35-8.05,98.05-85.04,121.52-117.85,1.27-1.78,4.02-.2,3.13,1.79-16.81,37.58-60.71,127.5-101.69,141.81-39.87,13.93-83.76-15.69-103.5-31.66"/>
    <path
        d="M272.75,154.45c-.44-.58-.67-1.23-.35-1.86,.62-1.2,2.42-.78,3.64-.21,19.8,9.38,42.68,16.71,64.74,17.09,25.1,.42,45.38-13.54,65.03-27.65,19.95-14.32,38.64-30.45,56.32-47.48,1.27-1.23,3.24,.42,2.25,1.89-14.36,21.57-29.86,42.56-48.13,61.01-16.4,16.56-36.79,36.2-61.49,36.79-8.89,.21-17.2-2.2-25.38-5.45-20.03-7.95-37.94-20.37-55.42-32.98-.43-.31-.89-.71-1.22-1.15"/>
    <path
        d="M354.61,81.93c.12,5.55-1.18,11.02-4.44,16.18-5.12,8.1-13.98,13.41-23.54,14.06-.7,.05-1.4,.07-2.1,.07-12.72,0-21.26-8.43-26.93-19.05-7.17-13.44-15.89-28.46-30.33-35.07-16.92-7.76-36.31-3.4-51.67,5.89-3.56,2.15-7,4.49-10.34,6.96-13.14,9.71-26.04,21.33-36.04,34.32-9.79-21-27.35-36.33-45.9-49.58-.14-.1-.22-.15-.22-.15-.56-.38-1.15-.75-1.74-1.1-5.86-3.6-12.38-6.16-19.24-7.53-3.42-.66-6.95-1.06-10.48-1.06-1.77,.01-3.55-.09-5.3,.14l-2.65,.2c-.89,.07-1.75,.28-2.63,.4-6.99,1.12-13.82,3.49-20.12,7.03-12.54,7.13-22.61,18.99-27.66,32.93l-.09,.25-.48,1.44-.54,1.72c-.34,1.14-.65,2.3-.92,3.47-.51,2.44-1,4.85-1.28,7.3-.62,4.89-.73,9.92-.36,15.01,.7,10.2,3.31,20.62,7.25,30.81,1.96,5.1,4.23,10.15,6.74,15.14,2.54,4.98,5.33,9.89,8.3,14.71,5.94,9.68,12.69,19.02,19.9,28.06,14.47,18.09,30.86,34.96,48.18,50.88,8.66,7.96,17.59,15.66,26.74,23.11,4.57,3.73,9.2,7.4,13.88,11,3.67,2.81,7.39,5.6,11.11,8.28,1.99-1.25,4-2.52,5.98-3.82l4.74-3.1,4.7-3.18c6.27-4.24,12.45-8.64,18.56-13.11,12.22-8.98,24.12-18.42,35.65-28.3,19.83-17.04,37.54-35.99,52.66-57.34-6.1,8.61-11.46,17.68-17.84,26.12-9.45,12.52-19.5,24.71-30.72,35.68-10.98,10.73-22.36,21.07-34.12,30.99-5.89,4.94-11.86,9.81-17.93,14.54l-4.57,3.55-4.61,3.48c-3.11,2.32-6.18,4.57-9.45,6.87l-3.05,2.14-3.51-2.14c-5.29-3.23-10.29-6.47-15.34-9.84-5.02-3.35-9.99-6.79-14.9-10.28-9.85-7-19.5-14.27-28.95-21.84-18.87-15.18-37-31.48-53.61-49.62-4.16-4.53-8.19-9.21-12.12-14.01-3.93-4.79-7.72-9.72-11.35-14.83-3.62-5.11-7.09-10.37-10.35-15.82-3.23-5.46-6.25-11.12-8.97-17-5.45-11.72-9.68-24.44-11.56-38-.95-6.76-1.28-13.71-.89-20.71,.17-3.51,.63-6.99,1.12-10.43,1.8-12.52,5.52-25.3,12.44-35.96,6.09-9.4,14.28-17.22,23.27-23.82,1.81-1.33,3.64-2.61,5.51-3.84,9.44-6.23,20.07-10.83,31.21-13.42,1.39-.31,2.78-.69,4.19-.93l4.24-.65c2.83-.51,5.69-.64,8.54-.83,5.72-.36,11.47-.14,17.21,.56,11.46,1.44,22.73,4.95,33.06,10.33,10.35,5.37,19.72,12.65,27.61,21.36,.21,.23,.4,.48,.62,.72,.8-1.05,1.61-2.1,2.43-3.12,7.71-9.42,17.09-17.56,27.71-23.78,10.61-6.24,22.42-10.6,34.65-12.78C240.1,.5,246.29-.06,252.5,0c3.1,.05,6.22,.04,9.32,.43l4.66,.47c1.56,.18,3.09,.52,4.63,.78,12.34,2.21,24.34,6.67,35.22,13.07,20.23,11.9,36.25,30.84,45.01,52.58,1.94,4.81,3.14,9.73,3.25,14.6"/>
</svg>
