<svg id="Layer_2" data-name="Layer 2" xmlns="http://www.w3.org/2000/svg" viewBox="0 0 1616.15 1213.49"><defs><clipPath id="clippath"><path style="fill:none" d="M0 0h1616.15v1213.49H0z"/></clipPath><style>.cls-1{fill:#e5e069}</style></defs><g style="opacity:.1" id="Layer_1-2" data-name="Layer 1"><g style="clip-path:url(#clippath)"><path class="cls-1" d="M1043.89 919.36c8.95-10.79 25.98.13 19.67 12.66l-.57 1.14c-3.85 7.05-7.86 14.05-11.81 21.11-3.8 7.19-8.38 13.83-12.8 20.63-4.5 6.75-8.69 13.8-13.73 20.18l-14.64 19.49c-.05.06-.1.12-.15.19-10.51 12.42-20.9 25.17-32.59 36.69-11.14 12.16-23.66 22.83-35.91 33.97l-.18.15-19.29 15.55-4.88 3.88c-1.65 1.28-3.38 2.42-5.06 3.64l-10.21 7.18-10.23 7.2c-1.69 1.23-3.46 2.37-5.23 3.44l-5.33 3.3c-7.1 4.4-14.22 8.83-21.46 13.04l-22.22 11.81-5.57 2.95c-1.89.93-3.82 1.76-5.73 2.67l-11.47 5.24-11.53 5.19c-1.91.9-3.88 1.65-5.84 2.39l-5.92 2.25c-7.88 2.96-15.78 6.06-23.74 8.91a565.57 565.57 0 0 1-98.98 23.66l-12.69 1.67-6.37.82-6.37.53-12.8 1.03-6.39.5-3.2.24-3.22.11-25.58.75h-.23l-25.6-.64c-34.3-1.61-68.54-6.27-102.16-13.89-33.64-7.62-66.67-18.21-98.63-31.59-7.93-3.52-15.94-6.87-23.77-10.56l-23.33-11.6-22.77-12.68c-7.48-4.43-14.8-9.13-22.19-13.73-58.48-37.84-110.72-86.08-153.35-142.36-5.18-7.14-10.45-14.24-15.53-21.46L89.78 932.8c-4.63-7.54-9-15.24-13.48-22.91-2.3-3.79-4.28-7.76-6.32-11.69l-6.13-11.81c-15.93-31.74-29.07-64.98-39.22-99.16l-3.62-12.87c-1.16-4.31-2.55-8.57-3.44-12.92l-5.94-26.13c-1.62-8.79-3.12-17.61-4.64-26.43-.84-4.4-1.3-8.85-1.86-13.29l-1.61-13.36c-3.89-35.65-4.51-71.75-1.98-107.68 4.94-71.9 23.15-142.99 53.1-208.94 29.93-65.93 71.21-127.08 122.39-179.35 51.22-52.18 111.96-95.64 178.85-127.27 33.4-15.89 68.45-28.34 104.21-37.9 35.78-9.48 72.49-15.98 109.61-19.06L597.6.36l27.95-.33c4.67-.12 9.31.24 13.99.37l13.97.57 7 .31 6.97.6 13.94 1.24a626.69 626.69 0 0 1 109.9 20.93c35.91 10.22 70.99 23.53 104.61 39.87a652.253 652.253 0 0 1 96.21 57.69c33.55 24.27 65.77 50.81 93.69 81.49 28.45 31.26 54.75 65.08 51.23 109.61-4.75 60.05-57.27 104.85-117.29 100.11-21-1.66-40.61-9.46-57.48-21.94-18.66-13.8-32.59-32.66-47.26-50.37-30.98-37.4-71.06-66.76-113.67-89.61-22.27-11.94-45.64-21.84-69.67-29.73-48.08-15.64-98.87-23.47-149.71-21.59-25.4.98-50.81 4.1-75.88 9.43-25.03 5.38-49.72 12.71-73.43 22.64-47.52 19.5-91.88 47.57-130.42 82.83-38.6 35.19-71.07 77.63-95.65 124.45-12.26 23.43-22.61 47.94-30.77 73.22-8.23 25.25-13.9 51.34-17.43 77.75-3.5 26.41-4.61 53.19-3.47 79.97l.55 10.05c.21 3.34.28 6.71.73 10.04l2.18 20.04 3.18 19.97c.43 3.38 1.34 6.61 2 9.94l2.09 9.9c12.03 52.65 33.22 103.53 63.26 149.37 29.97 45.83 68.37 86.75 112.91 120.19 44.47 33.59 95.3 59.25 149.2 75.71 53.92 16.46 111.02 23.49 168.07 20.17l5.36-.25c1.8-.04 3.58-.12 5.36-.31l10.69-.99 10.73-.95c3.56-.44 7.1-1.01 10.66-1.51 14.31-1.67 28.31-4.92 42.56-7.51 7.04-1.66 14.01-3.54 21.05-5.29l5.29-1.35c1.76-.42 3.52-.87 5.23-1.47l10.35-3.31 10.44-3.23c1.75-.54 3.49-1.05 5.22-1.63l5.11-1.93 20.53-7.71c6.73-2.83 13.34-5.94 20.12-8.82l5.06-2.2c1.69-.7 3.39-1.46 5.01-2.32l9.82-5.01c13.32-6.33 25.83-14.06 38.77-21.33.07-.04.15-.08.22-.13l18.6-12.09c6.35-3.96 12.29-8.47 18.35-12.86 12.36-8.51 23.59-18.43 35.46-27.88a650.535 650.535 0 0 0 64.24-65.05l.59-.71"/><path class="cls-1" d="M739.75 507.77c-6.71-5.43-.34-16.04 7.6-12.65 65.25 27.88 186.02 64.99 323.43 36.89 161.74-33.08 403.05-349.57 499.52-484.41 5.23-7.31 16.53-.82 12.86 7.37-69.11 154.48-249.56 524.08-417.99 582.92-163.89 57.26-344.28-64.5-425.42-130.12"/><path class="cls-1" d="M827.28 658.88c-1.81-2.38-2.75-5.07-1.43-7.65 2.54-4.95 9.94-3.22 14.97-.84 81.38 38.54 175.44 68.7 266.13 70.23 103.16 1.74 186.51-55.67 267.32-113.65 82.02-58.85 158.84-125.17 231.51-195.18 5.24-5.05 13.31 1.71 9.27 7.76-59.05 88.64-122.73 174.96-197.84 250.78-67.42 68.06-151.22 148.81-252.76 151.24-36.54.88-70.69-9.05-104.32-22.4-82.35-32.7-155.96-83.74-227.82-135.57-1.78-1.28-3.66-2.92-5.03-4.72"/></g></g></svg>